<?xml version="1.0" encoding="UTF-8" standalone="no"?>
<!-- Created with Inkscape (http://www.inkscape.org/) -->

<svg
   xmlns:dc="http://purl.org/dc/elements/1.1/"
   xmlns:cc="http://creativecommons.org/ns#"
   xmlns:rdf="http://www.w3.org/1999/02/22-rdf-syntax-ns#"
   xmlns:svg="http://www.w3.org/2000/svg"
   xmlns="http://www.w3.org/2000/svg"
   xmlns:sodipodi="http://sodipodi.sourceforge.net/DTD/sodipodi-0.dtd"
   xmlns:inkscape="http://www.inkscape.org/namespaces/inkscape"
   id="svg3039"
   version="1.1"
   inkscape:version="0.48.3.1 r9886"
   width="1000"
   height="1000"
   sodipodi:docname="D20 projfin.svg">
  <metadata
     id="metadata3045">
    <rdf:RDF>
      <cc:Work
         rdf:about="">
        <dc:format>image/svg+xml</dc:format>
        <dc:type
           rdf:resource="http://purl.org/dc/dcmitype/StillImage" />
      </cc:Work>
    </rdf:RDF>
  </metadata>
  <defs
     id="defs3043" />
  <sodipodi:namedview
     pagecolor="#ffffff"
     bordercolor="#666666"
     borderopacity="1"
     objecttolerance="10"
     gridtolerance="10"
     guidetolerance="10"
     inkscape:pageopacity="0"
     inkscape:pageshadow="2"
     inkscape:window-width="1366"
     inkscape:window-height="768"
     id="namedview3041"
     showgrid="false"
     inkscape:zoom="0.8"
     inkscape:cx="223.99143"
     inkscape:cy="620.07789"
     inkscape:window-x="0"
     inkscape:window-y="0"
     inkscape:window-maximized="1"
     inkscape:current-layer="svg3039" />
  <path
     style="fill:#000000;opacity:1"
     d="m 488.32445,942.61955 c -1.55595,-1.30924 -6.42798,-6.97552 -10.82673,-12.59172 -4.39874,-5.61621 -11.47645,-14.55751 -15.72822,-19.86956 C 457.51772,904.84622 451.76649,897.575 448.98899,894 446.21148,890.425 440.69021,883.34715 436.71949,878.27145 432.74877,873.19575 426.125,864.71201 422,859.41871 c -4.125,-5.29331 -9.532,-12.16546 -12.01555,-15.27145 -2.48354,-3.10599 -5.18354,-6.61973 -6,-7.8083 -0.81645,-1.18857 -4.29444,-5.68857 -7.72887,-10 -3.43444,-4.31143 -8.60944,-10.87699 -11.5,-14.59014 -2.89057,-3.71315 -7.55805,-9.57166 -10.37217,-13.01892 -2.81412,-3.44727 -6.41412,-8.11902 -8,-10.38168 -1.58588,-2.26267 -5.71919,-7.65415 -9.18514,-11.98108 -3.46595,-4.32693 -8.64095,-10.91891 -11.5,-14.64885 -2.85905,-3.72994 -6.93344,-8.87489 -9.05421,-11.43322 -2.12077,-2.55834 -5.71031,-7.15657 -7.97676,-10.2183 -2.26645,-3.06172 -5.95424,-7.81677 -8.1951,-10.56677 -2.24085,-2.75 -4.72631,-5.97247 -5.52324,-7.16104 -0.79693,-1.18857 -4.14896,-5.51571 -7.44896,-9.61587 -3.3,-4.10016 -8.58121,-10.77769 -11.73602,-14.83896 -3.15481,-4.06127 -7.99231,-10.25399 -10.75,-13.76159 C 282.25629,680.61494 280,676.73024 280,675.48989 l 0,-2.2552 40.25,-0.59356 c 62.37386,-0.91984 302.03078,-1.45232 342.25,-0.76043 l 36,0.6193 0.26903,2.5 c 0.14797,1.375 -0.52703,3.72394 -1.5,5.21986 -1.67302,2.57225 -32.65576,43.4108 -46.87037,61.78014 -15.75951,20.36581 -18.05894,23.38366 -20.89866,27.42812 -1.65,2.35002 -4.79332,6.47756 -6.98516,9.17232 -2.19184,2.69476 -4.32518,5.34956 -4.74077,5.89956 -0.41558,0.55 -3.57225,4.67138 -7.01483,9.15862 -3.44258,4.48724 -8.73424,11.39865 -11.75924,15.3587 -3.025,3.96005 -8.425,10.9591 -12,15.55345 -3.575,4.59436 -9.425,12.22878 -13,16.96539 -3.575,4.7366 -10.24923,13.41617 -14.83162,19.28792 -16.45371,21.08334 -23.69255,30.45689 -25.13629,32.54889 -2.35232,3.40854 -27.88179,36.43904 -34.29928,44.37703 -3.22371,3.9875 -6.47285,7.25 -7.22032,7.25 -0.74747,0 -2.63209,-1.0712 -4.18804,-2.38045 z m 23.02782,-24.19805 c 9.83471,-12.60682 18.84124,-24.32839 20.01451,-26.04792 2.05095,-3.00585 7.87752,-10.58207 25.8016,-33.5495 4.58239,-5.87175 11.25662,-14.55132 14.83162,-19.28792 3.575,-4.73661 9.425,-12.37103 13,-16.96539 3.575,-4.59435 8.975,-11.5934 12,-15.55345 3.025,-3.96005 8.31666,-10.87146 11.75924,-15.3587 3.44258,-4.48724 6.59925,-8.60862 7.01483,-9.15862 0.41559,-0.55 2.54893,-3.2048 4.74077,-5.89956 2.19184,-2.69476 5.33516,-6.8223 6.98516,-9.17232 2.83972,-4.04446 5.13915,-7.06231 20.89866,-27.42812 14.83531,-19.17146 45.21853,-59.24363 46.82473,-61.75674 1.17533,-1.83894 1.39789,-3.02193 0.69987,-3.71987 -0.6914,-0.69129 -55.44283,-0.95935 -168.7234,-0.82604 -92.23492,0.10854 -185.12289,0.50266 -206.41771,0.87582 -35.36285,0.61968 -38.63259,0.81921 -37.73398,2.30265 0.54112,0.8933 4.37468,5.89918 8.51902,11.12418 4.14434,5.225 9.39522,11.975 11.66861,15 2.2734,3.025 6.41287,8.29704 9.19883,11.71563 2.78595,3.4186 7.40591,9.2686 10.26657,13 2.86066,3.73141 8.03566,10.32895 11.5,14.6612 3.46434,4.33226 6.9738,8.86783 7.7988,10.07905 1.4986,2.20017 5.34134,7.09484 17.20219,21.91126 3.4638,4.32693 7.59534,9.71841 9.18122,11.98108 1.58588,2.26266 5.18588,6.93441 8,10.38168 2.81412,3.44726 7.4816,9.30577 10.37217,13.01892 2.89056,3.71315 8.06556,10.27871 11.5,14.59014 3.43443,4.31143 6.91242,8.81143 7.72887,10 0.81646,1.18857 3.51646,4.70231 6,7.8083 2.48355,3.10599 7.89055,9.97814 12.01555,15.27145 4.125,5.2933 10.74877,13.77704 14.71949,18.85274 3.97072,5.0757 9.49199,12.15355 12.2695,15.72855 2.7775,3.575 8.52873,10.84716 12.78051,16.16036 4.25177,5.3132 10.65532,13.4132 14.23009,18 8.95171,11.48595 13.1026,15.97224 14.38319,15.54538 0.59851,-0.1995 9.13478,-10.67741 18.96949,-23.28424 z m -50.06799,-89.51484 c -1.76864,-1.13281 -4.13114,-3.54084 -5.25,-5.35119 C 454.24978,820.66808 454,818.59494 454,806.67092 c 0,-12.34684 0.18505,-13.76541 2.01853,-15.47355 l 2.01852,-1.88055 -2.08851,-2.65511 c -1.14868,-1.46031 -1.94451,-3.66909 -1.76852,-4.90841 L 454.5,779.5 l 24.91903,-0.26784 c 16.82406,-0.18083 25.36556,-0.63842 26.2936,-1.40863 0.95793,-0.79501 1.28558,-2.98713 1.08097,-7.23216 L 506.5,764.5 l -26,-0.5 -26,-0.5 -0.30926,-4.28608 c -0.37436,-5.18835 2.34901,-10.14832 7.2277,-13.16351 C 464.5385,744.1221 466.2703,744 490.5,744 c 23.73543,0 26.01059,0.15244 28.89671,1.93616 1.72303,1.06489 4.13865,3.29667 5.36804,4.95951 2.08113,2.81488 2.23525,4.06284 2.23525,18.09902 0,12.25765 -0.30502,15.5412 -1.6318,17.56612 -1.50906,2.30312 -1.50906,2.62606 0,4.29355 1.34959,1.49129 1.6318,4.28647 1.6318,16.1625 0,13.24527 -0.17457,14.61581 -2.25,17.66443 -1.2375,1.81777 -2.7574,3.30812 -3.37756,3.31188 -0.62015,0.004 -1.68775,0.68183 -2.37244,1.50683 -1.0502,1.26542 -5.40912,1.49737 -27.87244,1.48315 -25.16141,-0.0159 -26.80462,-0.13025 -29.84328,-2.07649 z M 517,827.5 c 0.68469,-0.825 1.75229,-1.50307 2.37244,-1.50683 0.62016,-0.004 2.14006,-1.49411 3.37756,-3.31188 2.03785,-2.99342 2.25,-4.4868 2.25,-15.83818 0,-11.26314 -0.20266,-12.71654 -2,-14.34311 -1.1,-0.99549 -1.98999,-2.52773 -1.97776,-3.40499 0.0122,-0.87725 0.90222,-2.72001 1.97776,-4.09501 1.71418,-2.19146 1.95827,-4.14026 1.97776,-15.79049 0.0204,-12.20748 -0.15991,-13.53686 -2.21301,-16.31384 -1.22939,-1.66284 -3.64501,-3.89462 -5.36804,-4.95951 C 514.52845,746.16348 512.25741,746 490.5,746 c -22.21331,0 -23.98041,0.13379 -27.08156,2.05041 -4.04448,2.49963 -7.6764,8.10975 -7.24009,11.18356 L 456.5,761.5 l 26,0.5 26,0.5 0.29377,7.8448 c 0.18436,4.92306 -0.14058,8.36815 -0.87244,9.25 -0.9441,1.13756 -5.87272,1.4052 -25.87711,1.4052 -13.59099,0 -24.99615,0.28526 -25.3448,0.63391 -0.34865,0.34865 0.25135,1.75934 1.33333,3.13486 2.51581,3.19832 2.50375,6.32739 -0.0328,8.4992 -1.78741,1.53043 -2,2.94994 -2,13.35421 0,9.96179 0.29356,12.11674 2.03428,14.93329 1.11886,1.81035 3.48136,4.21838 5.25,5.35119 3.02174,1.9354 4.70132,2.06066 27.84328,2.07649 C 511.81315,828.9973 515.95437,828.75991 517,827.5 z M 473.22266,811.82266 C 472.5419,811.1419 472,808.04495 472,804.83518 c 0,-4.67605 0.36531,-5.96032 1.93426,-6.8 2.29424,-1.22783 31.96463,-1.38585 33.86509,-0.18035 0.91235,0.57872 1.21019,2.88243 1,7.73469 L 508.5,812.5 l -17.02734,0.27266 c -12.39913,0.19854 -17.35968,-0.0597 -18.25,-0.95 z m 33.58839,-6.22591 c 0.20589,-3.24554 -0.1322,-5.18435 -1,-5.73469 -1.89632,-1.2026 -27.58436,-1.05375 -29.87679,0.17312 -1.38652,0.74205 -1.93426,2.1013 -1.93426,4.8 0,2.07065 0.55118,4.316 1.22483,4.98965 0.88366,0.88366 5.41009,1.14828 16.25,0.95 L 506.5,810.5 l 0.31105,-4.90325 z M 427,913.11327 c -4.70342,-2.42836 -17.66411,-9.86016 -22,-12.61505 -1.925,-1.22308 -6.425,-3.86204 -10,-5.86435 -3.575,-2.00231 -8.525,-4.82769 -11,-6.27864 -2.475,-1.45094 -5.85,-3.40533 -7.5,-4.34308 -4.40816,-2.50531 -13.76977,-7.95956 -15.5,-9.0306 -0.825,-0.51069 -14.55,-8.41297 -30.5,-17.56063 -15.95,-9.14767 -31.475,-18.10342 -34.5,-19.90167 -3.025,-1.79826 -8.65,-4.97009 -12.5,-7.04852 -3.85,-2.07842 -9.25,-5.2319 -12,-7.00773 -2.75,-1.77582 -8.825,-5.36761 -13.5,-7.98175 -4.675,-2.61414 -11.75484,-6.71684 -15.73298,-9.11711 C 238.28888,803.96386 234.83857,802 234.59965,802 c -0.23892,0 -3.95908,-2.08994 -8.26702,-4.64431 -4.30795,-2.55437 -9.18263,-5.41026 -10.83263,-6.34642 -4.07051,-2.3095 -13.6532,-7.88622 -15.5,-9.02036 -0.825,-0.50664 -6,-3.48858 -11.5,-6.62654 -5.5,-3.13796 -15.85,-9.07361 -23,-13.19034 -7.15,-4.11673 -19.04701,-10.93543 -26.4378,-15.15266 -7.39079,-4.21724 -13.91348,-8.42183 -14.49488,-9.34354 -0.73342,-1.1627 -0.7389,-2.18026 -0.0179,-3.32327 0.57155,-0.90609 7.31924,-4.54005 14.99488,-8.07546 7.67564,-3.53542 16.65571,-7.68027 19.95571,-9.2108 3.3,-1.53052 14.1,-6.50788 24,-11.0608 9.9,-4.55292 22.05,-10.19374 27,-12.53516 C 239.15346,679.91684 250.62863,675 253.60704,675 c 1.63366,0 10.71188,11.29071 39.3981,49 6.90354,9.075 16.1459,21.225 20.53858,27 4.39269,5.775 8.65485,11.46791 9.47149,12.65092 0.81663,1.18301 5.76556,7.70801 10.99762,14.5 5.23206,6.79199 10.18206,13.30667 11,14.47706 0.81794,1.17038 4.2151,5.67038 7.54924,10 12.1314,15.75349 25.97341,33.92775 27.43793,36.02539 0.825,1.18166 5.78284,7.70556 11.01743,14.49755 5.23459,6.79199 10.27902,13.47408 11.20984,14.84908 0.93082,1.375 4.68916,6.325 8.35187,11 C 425.94448,898.612 435,911.24205 435,913.06066 c 0,2.48818 -3.24132,2.5095 -8,0.0526 z m 2.07172,-5.36327 c -1.6789,-2.3375 -6.87967,-9.2 -11.55727,-15.25 -4.6776,-6.05 -10.5531,-13.7 -13.05667,-17 -2.50358,-3.3 -9.14327,-12.01056 -14.75487,-19.35681 C 384.09131,848.79694 378.825,841.82305 378,840.64564 c -1.47335,-2.1027 -15.49816,-20.51301 -27.43793,-36.01766 -3.33414,-4.32962 -6.7313,-8.82962 -7.54924,-10 -0.81794,-1.17039 -5.76794,-7.68507 -11,-14.47706 -5.23206,-6.79199 -10.18099,-13.31699 -10.99762,-14.5 -0.81664,-1.18301 -5.0788,-6.87592 -9.47149,-12.65092 -4.39268,-5.775 -13.63504,-17.925 -20.53858,-27 -13.93244,-18.3148 -20.06125,-26.25941 -30.35221,-39.3447 -6.27502,-7.97889 -7.22165,-8.79156 -9.67039,-8.30181 -2.46807,0.49362 -18.74359,7.74388 -39.48254,17.58829 -4.4,2.08861 -16.1,7.51993 -26,12.06961 -9.9,4.54968 -20.7,9.52439 -24,11.05491 -3.3,1.53053 -12.3,5.68461 -20,9.23129 -7.7,3.54669 -14,7.01891 -14,7.71605 0,0.69715 6.075,4.73386 13.5,8.97048 7.425,4.23662 19.35,11.07118 26.5,15.18791 7.15,4.11673 17.5,10.05238 23,13.19034 5.5,3.13796 10.675,6.1199 11.5,6.62654 1.8468,1.13414 11.42949,6.71086 15.5,9.02036 1.65,0.93616 6.52468,3.79205 10.83263,6.34642 4.30794,2.55437 8.0281,4.64431 8.26702,4.64431 0.23892,0 3.68923,1.96386 7.66737,4.36414 3.97814,2.40027 11.05798,6.50297 15.73298,9.11711 4.675,2.61414 10.75,6.20593 13.5,7.98175 2.75,1.77583 8.15,4.92931 12,7.00773 3.85,2.07843 9.475,5.25026 12.5,7.04852 3.025,1.79825 18.55,10.754 34.5,19.90167 15.95,9.14766 29.675,17.04994 30.5,17.56063 1.73023,1.07104 11.09184,6.52529 15.5,9.0306 1.65,0.93775 5.025,2.89214 7.5,4.34308 2.475,1.45095 7.425,4.27633 11,6.27864 3.575,2.00231 8.075,4.64127 10,5.86435 3.37103,2.14184 15.83332,9.34506 21,12.13803 1.375,0.74328 2.86546,1.3542 3.31214,1.35759 0.44667,0.003 -0.56152,-1.90634 -2.24042,-4.24384 z M 263.26969,807.51741 c -1.77666,-0.77236 -4.13748,-2.89225 -5.24626,-4.71086 -2.39956,-3.93573 -2.65019,-10.0415 -0.48591,-11.83769 1.14753,-0.95236 9.67085,-1.39961 33.60275,-1.76324 l 32.06524,-0.48722 6.43698,6.8908 c 4.89648,5.24169 6.36764,7.4891 6.14724,9.3908 -0.28773,2.48274 -0.35877,2.49981 -10.28973,2.47314 -5.5,-0.0148 -18.60451,-0.4184 -29.12114,-0.89696 -17.03805,-0.77532 -19.37729,-0.69069 -21.4725,0.77686 -2.84711,1.99419 -7.28341,2.05685 -11.63667,0.16437 z m 9.28918,-1.98561 c 2.46532,-1.86467 14.12195,-1.97357 40.22292,-0.37575 12.34896,0.75596 19.62775,0.83441 20.24396,0.2182 0.61621,-0.61621 -1.28857,-3.37334 -5.29761,-7.6682 L 321.46837,791 l -22.48418,0.0992 c -12.36631,0.0546 -26.26254,0.39209 -30.88053,0.75 -6.45556,0.50033 -8.65144,1.05781 -9.5,2.4118 -1.61887,2.58315 1.99317,8.78776 6.39634,10.9874 1.925,0.96164 3.97649,1.74914 4.55887,1.75 0.58238,8.5e-4 1.93238,-0.65914 3,-1.46665 z M 245.5,777.63635 c -3.56165,-1.58298 -8.85685,-7.38588 -12.96689,-14.21015 -1.6318,-2.70941 -4.4443,-7.31124 -6.25,-10.22628 C 224.24013,749.90185 223,746.60389 223,744.46897 c 0,-2.8256 0.44104,-3.54156 2.5,-4.05833 5.35815,-1.34481 6.83251,0.0287 18.05283,16.8181 6.40651,9.5863 10.88907,17.29837 10.91061,18.77126 0.0302,2.06849 -0.48125,2.54054 -2.96344,2.73485 -1.65,0.12917 -4.35,-0.36516 -6,-1.0985 z m 6.5,-1.67079 c 0,-1.67385 -21.06889,-32.77802 -22.60091,-33.36591 -1.94491,-0.74633 -4.39909,0.34559 -4.39909,1.95726 0,0.73861 1.4774,3.72797 3.28311,6.64301 1.8057,2.91504 4.6182,7.51687 6.25,10.22628 4.12404,6.84752 9.4149,12.63588 12.96689,14.18616 3.69614,1.61319 4.5,1.67628 4.5,0.3532 z m 14.25632,1.0475 c -3.14576,-1.32345 -6.35427,-6.91887 -6.02835,-10.51306 0.27029,-2.98082 0.33283,-3.00986 9.7824,-4.54288 C 279.33001,760.44518 282,759.60104 282,758.1665 c 0,-0.3935 -4.5,-6.29603 -10,-13.11672 -5.63638,-6.98982 -10,-13.3282 -10,-14.52552 0,-3.1011 1.91295,-4.52426 6.08131,-4.52426 2.97731,0 4.15612,0.62152 6.16414,3.25 1.36555,1.7875 9.05687,10.9 17.09181,20.25 14.03601,16.33325 17.18847,21.37427 14.83709,23.72565 -2.45826,2.45826 -35.60254,5.60297 -39.91803,3.78741 z M 292.5,773.89786 c 10.61544,-1.49778 11.50101,-1.78043 11.48877,-3.66691 -0.006,-0.95202 -6.59231,-9.38095 -14.63586,-18.73095 -8.04355,-9.35 -15.74191,-18.4625 -17.10746,-20.25 -2.61925,-3.42858 -5.26269,-4.13908 -7.11147,-1.91143 -0.86421,1.0413 1.10725,4.08936 8.87755,13.72551 7.20576,8.93604 9.98847,13.1501 9.98847,15.12625 0,1.59394 -0.73172,3.12154 -1.75,3.65347 -0.9625,0.5028 -5.68988,1.46545 -10.50528,2.13923 -4.81541,0.67377 -9.01211,1.6406 -9.326,2.14849 -0.88326,1.42914 2.90547,7.21839 5.63602,8.61197 2.58048,1.31698 11.24132,1.01737 24.44526,-0.84563 z m 252.95867,138.41081 c 0.37151,-1.48023 2.35794,-4.74273 4.41429,-7.25 2.05635,-2.50727 7.95543,-10.18367 13.10906,-17.05867 10.32605,-13.77505 36.7434,-48.71629 55.46694,-73.36405 6.62807,-8.72523 13.62604,-18.03842 15.55104,-20.69598 1.925,-2.65756 6.875,-9.18275 11,-14.50042 4.125,-5.31767 9.075,-11.84657 11,-14.50867 4.09783,-5.66693 20.51557,-27.51775 27,-35.93505 2.475,-3.21274 6.63976,-8.68861 9.25502,-12.16859 26.0979,-34.72704 30.93591,-40.58607 34.18713,-41.40208 1.43617,-0.36045 5.32585,0.88957 10.91387,3.50739 4.77533,2.2371 8.90007,4.06745 9.1661,4.06745 0.26602,0 7.34487,3.19848 15.73078,7.10773 8.3859,3.90925 18.06357,8.41988 21.50592,10.02362 3.44236,1.60374 10.19236,4.65794 15,6.78711 4.80765,2.12917 13.24118,5.97974 18.74118,8.55683 11.10477,5.20327 13.93675,6.49121 20.50197,9.32394 13.24639,5.71549 17.99803,8.4061 17.99803,10.19135 0,3.63834 -1.3346,5.1173 -8.36608,9.27102 -3.92365,2.31783 -7.88655,4.66968 -8.80643,5.22632 -1.98211,1.19943 -18.65299,11.04966 -31.32749,18.5103 -14.03294,8.26026 -32.5467,18.99992 -37.5,21.75342 -4.2436,2.35897 -14.70811,8.33163 -18,10.27356 -3.8963,2.29848 -12.81828,7.46112 -15.61299,9.03434 -1.71215,0.96381 -4.18715,2.35721 -5.5,3.09642 -1.31286,0.73922 -3.08433,1.89467 -3.93661,2.56767 -0.85228,0.67299 -4.67728,2.86733 -8.5,4.87631 -3.82272,2.00898 -11.2254,6.15808 -16.4504,9.22022 -5.225,3.06215 -19.175,11.03306 -31,17.71314 -11.825,6.68009 -24.65,13.95122 -28.5,16.15808 -3.85,2.20685 -9.025,5.14274 -11.5,6.52419 -10.22745,5.70857 -50.14479,28.41612 -58.5,33.27856 C 555.4279,912.42949 550.29865,915 547.54549,915 c -2.49948,0 -2.69804,-0.25607 -2.08682,-2.69133 z M 570.5,900.49413 c 8.35521,-4.86244 48.27255,-27.56999 58.5,-33.27856 2.475,-1.38145 7.65,-4.31734 11.5,-6.52419 3.85,-2.20686 16.675,-9.47799 28.5,-16.15808 11.825,-6.68008 25.775,-14.65099 31,-17.71314 5.225,-3.06214 12.62768,-7.21124 16.4504,-9.22022 3.82272,-2.00898 7.64772,-4.20332 8.5,-4.87631 0.85228,-0.673 2.62375,-1.82845 3.93661,-2.56767 1.31285,-0.73921 3.78785,-2.13261 5.5,-3.09642 2.79471,-1.57322 11.71669,-6.73586 15.61299,-9.03434 3.29189,-1.94193 13.7564,-7.91459 18,-10.27356 4.9533,-2.7535 23.46706,-13.49316 37.5,-21.75342 12.6745,-7.46064 29.34538,-17.31087 31.32749,-18.5103 0.91988,-0.55664 4.88278,-2.90849 8.80643,-5.22632 3.92366,-2.31783 7.38863,-4.87798 7.69993,-5.68921 0.55096,-1.43579 -4.14186,-4.08199 -17.33188,-9.77316 -6.56522,-2.83273 -9.3972,-4.12067 -20.50197,-9.32394 -5.5,-2.57709 -13.93353,-6.42766 -18.74118,-8.55683 -4.80764,-2.12917 -11.55764,-5.18337 -15,-6.78711 -3.44235,-1.60374 -13.12002,-6.11437 -21.50592,-10.02362 C 751.86699,688.19848 744.78936,685 744.52483,685 c -0.26453,0 -3.84503,-1.575 -7.95666,-3.5 -4.11163,-1.925 -8.12698,-3.5 -8.92299,-3.5 -2.24304,0 -7.97468,7.00826 -33.39016,40.82724 -2.61526,3.47998 -6.78002,8.95585 -9.25502,12.16859 -6.48443,8.4173 -22.90217,30.26812 -27,35.93505 -1.925,2.6621 -6.875,9.191 -11,14.50867 -4.125,5.31767 -9.075,11.84286 -11,14.50042 -1.925,2.65756 -8.92297,11.97075 -15.55104,20.69598 -14.15784,18.63745 -41.03883,54.1569 -58.35086,77.10247 -6.73838,8.93112 -12.66706,16.49518 -13.17485,16.80901 -0.50779,0.31383 -0.92325,1.03278 -0.92325,1.59765 0,1.04232 6.25051,-2.19432 22.5,-11.65095 z M 662.25,798.4121 c -0.6875,-0.31832 -1.25,-1.22632 -1.25,-2.01778 0,-1.64226 7.44142,-10.02501 10.21873,-11.51138 1.01422,-0.54279 5.31741,-1.19383 9.56265,-1.44676 4.24524,-0.25292 8.91179,-0.70555 10.37011,-1.00584 1.66153,-0.34213 4.7253,-3.01348 8.20596,-7.1549 3.05496,-3.63491 5.32274,-6.98389 5.0395,-7.44218 -0.28324,-0.4583 -1.72593,-0.8394 -3.20597,-0.84691 C 696.10569,766.96054 694,765.9055 694,763.38337 694,762.07252 694.9,760.1 696,759 c 1.83402,-1.83402 3.33333,-2 18.06574,-2 9.16218,0 16.89691,0.44483 18,1.03518 1.06384,0.56935 1.93426,1.90921 1.93426,2.97746 0,2.61318 -8.86592,19.10578 -13.88842,25.8356 -2.90399,3.89114 -10.66212,7.65768 -20.11158,9.76408 -6.62242,1.47622 -35.47762,2.85193 -37.75,1.79978 z M 698,794.59253 c 9.41305,-2.06963 17.19943,-5.84222 20.11158,-9.74429 2.61513,-3.50411 5.57019,-8.47287 10.75031,-18.07602 2.96106,-5.48935 3.01017,-5.77033 1.17963,-6.75 C 728.991,759.46 721.8019,759 714.06574,759 c -12.91995,0 -14.23545,0.16971 -16.14907,2.08333 -1.14584,1.14584 -1.86482,2.30185 -1.59775,2.56892 0.26707,0.26707 2.66707,0.79536 5.33333,1.17397 4.20096,0.59654 4.8866,1.02097 5.13894,3.18109 0.21139,1.80959 -1.20485,4.25959 -5.16802,8.94029 -3.00256,3.54618 -6.39043,6.79208 -7.5286,7.21312 -1.13817,0.42103 -6.22112,1.07893 -11.29544,1.46199 -9.18828,0.69363 -9.24558,0.71474 -13.9964,5.15858 -2.62369,2.45415 -4.48507,4.92368 -4.1364,5.48784 0.85993,1.3914 24.87318,0.18359 33.33367,-1.6766 z m 42.51832,-6.93079 c -1.7712,-1.3172 -1.85902,-1.88202 -0.82684,-5.31774 0.63516,-2.1142 2.83478,-8.20605 4.88804,-13.53744 4.42796,-11.49747 5.60473,-12.35174 14.92048,-10.83151 7.7738,1.26861 9.93263,3.62627 9.16988,10.01444 -1.36239,11.41024 -2.68893,17.45831 -4.15011,18.92162 -1.19351,1.19524 -4.11777,1.66761 -11.80318,1.90663 -7.82359,0.24331 -10.68075,-0.0274 -12.19827,-1.156 z m 21.99956,-2.75063 c 0.87366,-0.8739 1.9837,-4.2489 2.46674,-7.5 0.48304,-3.25111 1.17122,-7.27792 1.52929,-8.94848 0.92066,-4.29528 -1.85455,-7.43038 -7.21373,-8.14919 -7.12659,-0.95588 -8.91986,0.0228 -10.87577,5.93534 -0.95542,2.88817 -2.99425,8.17622 -4.53071,11.75122 -2.59858,6.04627 -2.67492,6.59234 -1.09364,7.82288 2.47319,1.92461 17.58056,1.22603 19.71782,-0.91177 z M 708.25,752.33772 c -2.04703,-0.82599 -1.42143,-4.17929 1.08623,-5.82237 1.89237,-1.23993 6.30967,-1.55421 23.25,-1.65418 11.50257,-0.0679 24.51377,-0.17691 28.91377,-0.24229 7.91502,-0.11762 8.00322,-0.0911 8.303,2.49203 0.24688,2.12731 -0.33678,2.9145 -3.15113,4.25 -2.9485,1.39915 -7.38437,1.62753 -30.303,1.56014 -14.76688,-0.0434 -27.41137,-0.30592 -28.09887,-0.58333 z m 56.34005,-2.94748 c 5.69345,-2.70171 3.07506,-3.68573 -7.46669,-2.80604 -5.29285,0.44167 -17.12812,0.68256 -26.30061,0.5353 -10.93277,-0.17551 -17.40086,0.11953 -18.77801,0.85656 -1.15542,0.61836 -1.8366,1.55171 -1.51373,2.07411 0.34539,0.55885 10.89413,0.94983 25.62688,0.94983 20.94488,0 25.59462,-0.26326 28.43216,-1.60976 z M 874,720.74246 c -1.375,-0.6172 -7,-3.10645 -12.5,-5.53167 -5.5,-2.42522 -12.25,-5.45278 -15,-6.72791 -2.75,-1.27513 -11.525,-5.22651 -19.5,-8.78085 -7.975,-3.55433 -17.425,-7.81781 -21,-9.47439 -3.575,-1.65659 -10.325,-4.699 -15,-6.76092 -4.675,-2.06192 -13.1512,-5.93545 -18.83601,-8.60784 C 766.47919,672.1865 761.63186,670 761.39216,670 c -1.25478,0 -27.00223,-12.51241 -27.62685,-13.42574 -1.44109,-2.10717 -0.7102,-5.47413 3.25817,-15.00915 2.21292,-5.3171 4.45363,-10.43192 4.97937,-11.36628 0.91741,-1.63046 9.88136,-21.23767 24.78144,-54.20545 3.85459,-8.52864 8.62545,-18.96059 10.6019,-23.18213 1.97646,-4.22153 5.34948,-11.64355 7.4956,-16.49338 2.14613,-4.84983 6.65069,-14.58651 10.01013,-21.63707 C 798.25136,507.63023 801,501.67792 801,501.45344 c 0,-0.56571 11.17628,-24.80273 17.10683,-37.09807 2.69124,-5.57954 4.89317,-10.3722 4.89317,-10.65035 0,-0.42691 6.80482,-15.1393 19.98333,-43.20502 1.54954,-3.3 6.40946,-13.65 10.79982,-23 4.39037,-9.35 12.12437,-25.46367 17.18669,-35.80815 8.06092,-16.4719 9.47288,-18.76987 11.36719,-18.5 L 884.5,333.5 l -0.25795,192 c -0.14188,105.6 -0.48795,193.0125 -0.76906,194.25 -0.4051,1.78337 -1.18117,2.23596 -3.74204,2.18232 -1.77702,-0.0372 -4.35595,-0.57266 -5.73095,-1.18986 z m 7.32608,-2.14983 c 0.96598,-2.51731 2.03984,-382.5936 1.08092,-382.57571 -0.95507,0.0178 -6.7351,11.616 -24.66021,49.48308 C 836.92388,429.48872 825,455.05203 825,455.70502 c 0,0.27815 -2.20193,5.07081 -4.89317,10.65035 C 814.17628,478.65071 803,502.88773 803,503.45344 c 0,0.22448 -2.74864,6.17679 -6.10808,13.22736 -3.35944,7.05056 -7.864,16.78724 -10.01013,21.63707 -2.14612,4.84983 -5.51914,12.27185 -7.4956,16.49338 -1.97645,4.22154 -6.74731,14.65349 -10.6019,23.18213 -14.90008,32.96778 -23.86403,52.57499 -24.78144,54.20545 -2.665,4.73633 -8.85943,21.01135 -8.42651,22.13951 0.27349,0.7127 2.61819,2.23393 5.21045,3.38052 6.62108,2.92857 27.45824,12.41908 35.21321,16.03823 3.575,1.66841 10.775,4.9284 16,7.24441 5.225,2.31601 12.425,5.56705 16,7.22452 3.575,1.65747 13.025,5.92168 21,9.47601 7.975,3.55434 16.75,7.50572 19.5,8.78085 2.75,1.27513 9.5,4.30269 15,6.72791 5.5,2.42522 11.125,4.91447 12.5,5.53167 3.42557,1.53764 4.69221,1.50201 5.32608,-0.14983 z M 840.75,606.35823 c -2.0625,-2.54873 -3.75,-5.41704 -3.75,-6.37402 0,-1.58176 1.63956,-6.29137 3.99799,-11.48421 0.49959,-1.1 3.64631,-8.525 6.99272,-16.5 3.3464,-7.975 6.69898,-15.85 7.45018,-17.5 0.75119,-1.65 1.62409,-3.79771 1.93977,-4.77268 0.99177,-3.06302 3.59845,-3.20269 6.45627,-0.34592 2.53947,2.53854 2.66307,3.14019 2.66307,12.96361 0,7.66546 -0.43344,11.17839 -1.69383,13.72826 -0.93161,1.8847 -3.48165,7.92673 -5.66675,13.42673 -2.18511,5.5 -5.12971,12.5875 -6.54356,15.75 -2.23296,4.99468 -2.93354,5.74949 -5.33325,5.74615 -2.07753,-0.003 -3.69255,-1.15303 -6.51261,-4.63792 z m 9.84586,-3.10823 c 1.41385,-3.1625 4.35845,-10.25 6.54356,-15.75 2.1851,-5.5 4.73514,-11.54232 5.66675,-13.42737 1.18021,-2.38808 1.69383,-5.94281 1.69383,-11.72286 0,-7.22629 -0.28498,-8.58038 -2.21105,-10.5059 -2.13734,-2.13673 -2.23225,-2.14597 -2.84666,-0.27715 -0.34958,1.06331 -1.25021,3.28328 -2.0014,4.93328 -0.7512,1.65 -4.10378,9.525 -7.45018,17.5 -3.34641,7.975 -6.49313,15.4 -6.99272,16.5 -0.49959,1.1 -1.57124,3.66523 -2.38146,5.70051 -1.45874,3.66438 -1.43721,3.74489 2.20518,8.24615 2.02306,2.5001 4.02146,4.54737 4.4409,4.54949 0.41944,0.002 1.9194,-2.58365 3.33325,-5.74615 z M 788.25,607.03651 c -1.51236,-1.91756 -2.25,-4.21131 -2.25,-6.99655 0,-4.84307 3.68496,-12.02081 6.1772,-12.03226 0.92245,-0.004 3.0951,1.6798 4.82809,3.7423 2.86129,3.40533 3.10522,4.22466 2.65391,8.91419 -0.70026,7.27645 -2.02708,9.3479 -5.94438,9.28048 -2.30285,-0.0396 -3.85309,-0.86461 -5.46482,-2.90816 z m 7.62606,-0.80492 c 0.52053,-0.97262 1.23474,-3.33512 1.58712,-5.25 0.53426,-2.90319 0.16396,-4.04859 -2.22897,-6.89455 l -2.86966,-3.41295 -2.18228,3.53099 c -1.20025,1.94204 -2.18227,4.5317 -2.18227,5.75479 0,2.50683 3.8602,7.90033 5.71482,7.9848 0.66815,0.0304 1.6407,-0.74045 2.16124,-1.71308 z m 16.31558,-17.88923 c -9.23946,-9.66866 -12.20329,-15.29006 -12.15771,-23.05912 0.0212,-3.60715 0.76095,-7.28834 1.96607,-9.78324 1.06268,-2.2 1.94741,-4.6975 1.96607,-5.55 0.0187,-0.8525 0.43813,-1.9775 0.93216,-2.5 0.49403,-0.5225 2.08922,-4.1 3.54487,-7.95 1.45565,-3.85 3.27055,-8.35 4.03311,-10 0.76256,-1.65 1.66542,-3.98959 2.00636,-5.19908 0.34093,-1.2095 1.90238,-3.572 3.46987,-5.25 4.076,-4.36337 8.50132,-4.18383 14.20295,0.57622 2.38953,1.99493 5.28535,4.58243 6.43514,5.75 1.14979,1.16757 4.41976,4.32428 7.2666,7.0149 2.84683,2.69062 5.44906,5.97973 5.78272,7.30913 0.42161,1.67984 -0.4985,4.56551 -3.0166,9.46069 C 846.63046,553.03583 845,556.69214 845,557.287 c 0,0.59485 -0.94332,3.13613 -2.09627,5.64728 -4.22724,9.20705 -4.8608,10.68809 -7.30034,17.06572 -5.01863,13.12011 -7.37136,16 -13.07121,16 -2.46352,0 -4.37679,-1.41686 -10.34054,-7.65764 z m 13.51676,4.14933 c 2.4468,-1.71381 4.32834,-5.16748 7.89499,-14.49169 2.43954,-6.37763 3.0731,-7.85867 7.30034,-17.06572 1.15295,-2.51115 2.09627,-5.06595 2.09627,-5.67734 0,-0.61139 1.53592,-4.05831 3.41316,-7.65982 l 3.41316,-6.54821 -2.16316,-2.76462 c -1.18974,-1.52054 -3.60056,-4.03113 -5.35739,-5.57908 -1.75683,-1.54795 -5.80683,-5.26847 -9,-8.26782 -3.19317,-2.99934 -6.6153,-5.71208 -7.60473,-6.0283 -4.48492,-1.43337 -7.99258,3.87502 -15.25794,23.09091 -1.45565,3.85 -3.05084,7.4275 -3.54487,7.95 -0.49403,0.5225 -0.9135,1.6475 -0.93216,2.5 -0.0187,0.8525 -0.90339,3.35 -1.96607,5.55 -4.26152,8.82241 -1.51677,16.59006 10.19164,28.84236 4.02475,4.2117 7.77799,7.65764 8.34054,7.65764 0.56254,0 1.99184,-0.67874 3.17622,-1.50831 z m -9.63013,-21.2075 c -2.83757,-3.20509 -3.22647,-4.27028 -2.82948,-7.75 0.25314,-2.2188 1.42571,-6.147 2.60573,-8.72933 C 817.03453,552.22254 818,549.83535 818,549.5 c 0,-0.33535 0.83368,-2.49754 1.85263,-4.80486 1.01895,-2.30733 2.12983,-4.98264 2.46862,-5.94514 0.94435,-2.6829 4.81269,-2.08383 8.42875,1.30531 2.6966,2.52738 3.25,3.78283 3.25,7.37293 0,2.62616 -0.58959,4.81619 -1.5,5.57176 -0.825,0.68469 -1.5,1.928 -1.5,2.76291 0,0.83492 -0.85919,3.36732 -1.9093,5.62756 -1.05012,2.26024 -2.47059,5.61036 -3.1566,7.4447 -1.40862,3.76654 -3.47885,6.16483 -5.32153,6.16483 -0.68451,0 -2.72495,-1.67211 -4.5343,-3.71581 z m 7.37894,-3.53419 c 0.96852,-2.3375 2.61187,-6.09929 3.65187,-8.35953 1.04001,-2.26024 1.89092,-4.79264 1.89092,-5.62756 0,-0.83491 0.675,-2.07822 1.5,-2.76291 2.44521,-2.02935 1.75112,-5.66394 -1.69706,-8.88654 -3.12584,-2.92135 -4.76878,-3.1946 -4.83687,-0.80444 -0.0187,0.65504 -0.90339,2.99098 -1.96607,5.19098 -1.06268,2.2 -1.94741,4.36219 -1.96607,4.80486 -0.0187,0.44268 -0.90104,2.70829 -1.96084,5.03469 -3.43456,7.53934 -3.48268,8.98802 -0.41463,12.48443 1.5328,1.74681 3.06836,3.17602 3.41235,3.17602 0.34399,0 1.41787,-1.9125 2.3864,-4.25 z m -726.148193,152 c -1.067471,-1.64933 -1.586795,-314.62371 -0.586133,-353.23777 0.704178,-27.17321 0.938172,-30.01865 2.493091,-30.31677 1.320135,-0.25311 3.195565,2.74288 8.130085,12.98777 7.53054,15.63467 11.88803,24.91936 19.39078,41.31677 6.65807,14.55133 10.12938,22.04239 15.9871,34.5 2.45686,5.225 6.72972,14.45 9.49524,20.5 2.76553,6.05 7.04905,15.275 9.51893,20.5 2.46989,5.225 6.94995,14.9 9.95569,21.5 3.00573,6.6 6.96489,15.15 8.79811,19 5.71547,12.00317 12.49709,26.55644 17.70746,38 2.75463,6.05 7.03607,15.275 9.5143,20.5 4.29448,9.05429 12.46051,26.75431 17.3009,37.5 1.23873,2.75 4.93757,10.625 8.21963,17.5 10.08363,21.12234 13.7658,29.96365 13.7658,33.05323 0,2.74754 -0.6377,3.26137 -8.75,7.05019 -4.8125,2.24767 -14.825,6.78113 -22.25,10.07437 -7.425,3.29323 -15.975,7.14688 -19,8.56367 -3.025,1.41678 -12.25,5.59877 -20.5,9.2933 -25.37029,11.36139 -45.69258,20.54101 -52.5,23.71436 C 107.92165,719.24421 103.54127,721 100.9207,721 c -1.541466,0 -3.166724,-0.5625 -3.611683,-1.25 z m 11.302663,-3.86042 c 3.78858,-1.71073 9.81332,-4.47394 13.38832,-6.14046 6.80742,-3.17335 27.12971,-12.35297 52.5,-23.71436 8.25,-3.69453 17.475,-7.87652 20.5,-9.2933 3.025,-1.41679 11.575,-5.27044 19,-8.56367 22.69778,-10.06723 31,-14.11779 31,-15.12456 0,-1.23141 -6.12242,-15.04252 -13.7658,-31.05323 -3.28206,-6.875 -6.9809,-14.75 -8.21963,-17.5 -4.84039,-10.74569 -13.00642,-28.44571 -17.3009,-37.5 -2.47823,-5.225 -6.75967,-14.45 -9.5143,-20.5 -5.21037,-11.44356 -11.99199,-25.99683 -17.70746,-38 -1.83322,-3.85 -5.79238,-12.4 -8.79811,-19 -3.00574,-6.6 -7.4858,-16.275 -9.95569,-21.5 -2.46988,-5.225 -6.7534,-14.45 -9.51893,-20.5 -2.76552,-6.05 -7.03838,-15.275 -9.49524,-20.5 -6.15574,-13.09142 -9.66293,-20.66466 -15.51396,-33.5 -6.45374,-14.15752 -13.96851,-30.15233 -20.65709,-43.96757 l -5.309891,-10.96758 -0.729597,42.46758 c -0.935677,54.46285 -0.27265,335.06701 0.795615,336.71757 0.444959,0.6875 1.170213,1.25 1.611683,1.25 0.44147,0 3.90241,-1.39969 7.69098,-3.11042 z m 14.50786,-116.77004 c -2.25843,-2.25843 -2.79773,-6.98381 -1.14871,-10.06503 1.21745,-2.27484 7.17292,-4.69524 14.7217,-5.98314 3.19411,-0.54495 11.20747,-2.14957 17.80747,-3.56583 18.4202,-3.95268 26.75689,-5.50518 29.56291,-5.50537 1.5178,-10e-5 3.6863,1.1724 5.31779,2.87531 2.21706,2.31411 2.69284,3.63187 2.43709,6.75 L 191.5,587.5 l -7,1.13999 c -17.93096,2.92015 -32.54564,5.33576 -38.33953,6.33699 -3.48674,0.60254 -7.53674,1.97569 -9,3.05143 -1.46326,1.07575 -4.74418,2.23822 -7.29093,2.58329 -3.89085,0.52717 -4.96901,0.28883 -6.75,-1.49216 z m 12.04093,-3.18341 c 2.9369,-2.05726 3.16598,-2.10224 47.33953,-9.29614 5.80855,-0.94596 7.04936,-1.48459 7.29001,-3.16457 0.17221,-1.20223 -0.89221,-3.15721 -2.62056,-4.81308 l -2.91058,-2.78851 -7.87943,1.52648 c -4.33369,0.83956 -13.27944,2.68608 -19.87944,4.10336 -6.6,1.41728 -14.61336,3.02275 -17.80747,3.5677 C 128.38614,586.82975 123,589.87176 123,593.93426 c 0,0.58616 0.90685,1.97259 2.01523,3.08097 1.46316,1.46316 2.76441,1.84665 4.75,1.39988 1.50412,-0.33845 3.93198,-1.45398 5.39524,-2.47898 z M 112.5567,576.77749 C 111.70052,575.55512 111,574.16062 111,573.67862 c 0,-0.482 -0.63143,-2.29437 -1.40319,-4.02749 -0.77175,-1.73312 -2.57175,-5.79301 -4,-9.02197 -3.37247,-7.62445 -3.5086,-14.43825 -0.34681,-17.35901 1.2375,-1.14316 5.04894,-3.2466 8.46987,-4.67431 7.17422,-2.99414 17.14916,-3.58395 19.57562,-1.15749 0.79109,0.79109 3.55875,5.54384 6.15036,10.56167 2.59161,5.01783 5.35488,9.37002 6.14061,9.67153 2.21685,0.85069 8.4585,-0.62514 9.03873,-2.13718 0.28604,-0.74541 -2.23663,-6.40642 -5.60594,-12.58002 -4.02656,-7.3779 -6.02203,-12.11857 -5.82263,-13.83288 0.22782,-1.95855 1.42419,-3.16764 4.80338,-4.85448 5.02071,-2.50626 9.22982,-2.90307 10.78739,-1.01699 2.55592,3.09499 21.21261,36.3962 21.21261,37.86339 0,0.90295 -0.59017,2.13152 -1.3115,2.73017 -1.19662,0.99311 -7.96339,2.86058 -24.1885,6.67545 -7.73699,1.81914 -14.69337,1.84486 -18.94109,0.0701 -2.84012,-1.18668 -4.11673,-2.93197 -8.03169,-10.98042 -2.56016,-5.26321 -5.08015,-9.83233 -5.59998,-10.15361 C 120.49291,548.56861 117,549.9625 117,551.42136 c 0,0.7076 2.025,5.61992 4.5,10.91628 2.475,5.29635 4.5,10.77322 4.5,12.17082 0,1.80756 -0.74046,2.82261 -2.5651,3.51634 -1.4108,0.53639 -4.08529,0.97525 -5.9433,0.97525 -2.35731,0 -3.84862,-0.67164 -4.9349,-2.22251 z m 10.73095,-1.66514 c 0.46758,-0.46758 -1.20586,-5.24988 -3.71875,-10.62732 C 117.01159,559.01254 115,553.23958 115,551.37298 c 0,-2.6855 0.467,-3.45209 2.39829,-3.93681 5.63525,-1.41436 6.81673,-0.43032 12.08322,10.06383 4.69817,9.36172 5.28639,10.09261 9.21575,11.451 3.72065,1.28623 5.08328,1.26567 12,-0.18101 16.09719,-3.36686 25.46141,-6.01989 25.97536,-7.35923 0.29136,-0.75928 -3.82504,-8.92482 -9.14755,-18.14564 -5.32252,-9.22081 -10.25953,-17.36553 -10.97114,-18.09936 -1.07641,-1.11002 -2.0617,-0.98443 -5.86324,0.74737 -2.51317,1.14488 -4.82927,2.50208 -5.14689,3.01599 -0.31761,0.51392 2.1301,5.89551 5.43936,11.9591 6.86972,12.58745 7.59687,16.56055 3.32792,18.18361 -1.4789,0.56228 -4.73948,0.88864 -7.24573,0.72525 l -4.55681,-0.29708 -5.32928,-9.98734 c -2.9311,-5.49304 -5.85802,-10.32365 -6.50427,-10.73469 -2.36746,-1.50581 -8.89143,-0.71279 -14.95512,1.81787 -3.42093,1.42771 -7.23237,3.53115 -8.46987,4.67431 -1.26649,1.16994 -2.25,3.26081 -2.25,4.78332 0,1.48766 1.16857,5.34672 2.59681,8.57569 1.42825,3.22896 3.22825,7.28885 4,9.02197 0.77176,1.73312 1.40319,3.54549 1.40319,4.02749 0,0.482 0.73194,1.92136 1.62653,3.19857 1.31803,1.88174 2.21304,2.2049 4.71875,1.70375 1.70072,-0.34014 3.47479,-1.00101 3.94237,-1.46859 z M 303.75,652.32202 274,651.97024 l 0,-3.26261 c 0,-1.79444 0.61092,-4.15025 1.3576,-5.23512 1.36882,-1.9888 22.91015,-40.41461 29.41584,-52.47251 1.92885,-3.575 6.65578,-12.125 10.5043,-19 3.84851,-6.875 9.45683,-17 12.46293,-22.5 3.0061,-5.5 5.80119,-10.45 6.21132,-11 0.41012,-0.55 2.67208,-4.6 5.02657,-9 2.35449,-4.4 11.05479,-20.15 19.334,-35 8.27922,-14.85 16.38064,-29.475 18.00316,-32.5 1.62252,-3.025 6.10213,-11.125 9.95468,-18 3.85255,-6.875 9.46828,-17 12.4794,-22.5 8.57015,-15.65391 10.40472,-18.92715 11.2095,-20 0.41258,-0.55 2.32106,-3.925 4.24107,-7.5 4.36608,-8.1295 12.57453,-23.00412 13.79605,-25 0.50492,-0.825 6.16758,-10.95 12.58369,-22.5 6.41611,-11.55 14.69797,-26.4 18.40413,-33 3.70616,-6.6 8.71159,-15.6 11.12317,-20 2.41159,-4.4 4.83647,-8.72499 5.38864,-9.6111 0.97822,-1.5698 3.86074,-6.75374 8.835,-15.8889 1.72423,-3.16652 3.17483,-4.58906 4.89524,-4.80056 1.34469,-0.1653 2.92612,0.2847 3.51428,1 1.21552,1.4783 19.25943,33.79727 19.25943,34.49613 0,0.25052 1.80357,3.54363 4.00794,7.31803 4.22199,7.22904 15.00581,26.75979 28.15193,50.9864 4.32749,7.975 8.31472,15.175 8.86051,16 0.54579,0.825 1.29829,2.175 1.67223,3 2.51194,5.54207 16.85007,30.27789 22.56138,38.9224 C 585.05776,426.73401 591,437.35615 591,439.49429 c 0,0.79427 0.9362,3.37048 2.08045,5.72492 2.16969,4.46443 2.70418,5.4856 6.38667,12.20199 1.22999,2.24334 4.43323,8.1288 7.11831,13.0788 2.68509,4.95 5.56431,10.23036 6.39827,11.73414 0.83397,1.50377 5.30596,9.60377 9.93777,18 4.63181,8.39622 9.42379,17.06586 10.64884,19.26586 1.22506,2.2 5.8792,10.75 10.34254,19 4.46335,8.25 8.54124,15.675 9.06197,16.5 1.13244,1.79411 8.94671,15.92045 13.82927,25 1.92246,3.575 4.63207,8.525 6.02135,11 1.38928,2.475 6.05321,11.025 10.36428,19 4.31107,7.975 8.27024,15.175 8.79815,16 4.09939,6.40637 12.01213,22.12043 12.01213,23.85513 0,1.17968 -0.1125,2.16973 -0.25,2.20011 -1.27615,0.28197 -377.49503,0.53289 -400,0.26678 z m 397.77009,-2.50878 c 0.31031,-0.3103 -8.76853,-17.47931 -11.53468,-21.81324 -0.52656,-0.825 -4.48462,-8.025 -8.79569,-16 -4.31107,-7.975 -8.975,-16.525 -10.36428,-19 -1.38928,-2.475 -4.09889,-7.425 -6.02135,-11 -4.88256,-9.07955 -12.69683,-23.20589 -13.82927,-25 -0.52073,-0.825 -4.59862,-8.25 -9.06197,-16.5 -4.46334,-8.25 -9.11748,-16.8 -10.34254,-19 -1.22505,-2.2 -6.01703,-10.86964 -10.64884,-19.26586 -4.63181,-8.39623 -9.1038,-16.49623 -9.93777,-18 -0.83396,-1.50378 -3.71318,-6.78414 -6.39827,-11.73414 -2.68508,-4.95 -5.88832,-10.83546 -7.11831,-13.0788 -3.68249,-6.71639 -4.21698,-7.73756 -6.38667,-12.20199 C 589.9362,444.86477 589,442.28856 589,441.49429 c 0,-2.13814 -5.94224,-12.76028 -13.74601,-24.57189 -5.71131,-8.64451 -20.04944,-33.38033 -22.56138,-38.9224 -0.37394,-0.825 -1.12644,-2.175 -1.67223,-3 -0.54579,-0.825 -4.53302,-8.025 -8.86051,-16 C 529.01375,334.77339 518.22993,315.24264 514.00794,308.0136 511.80357,304.2392 510,300.94609 510,300.69557 c 0,-0.69639 -18.04169,-33.01512 -19.25265,-34.48795 -0.58442,-0.71081 -1.39523,-0.93581 -1.8018,-0.5 -0.40656,0.43581 -2.65204,4.39238 -4.98994,8.79238 -2.3379,4.4 -4.85933,8.71043 -5.60317,9.57874 C 477.6086,284.94705 477,285.92002 477,286.2409 c 0,0.32088 -1.729,3.66044 -3.84223,7.42126 -5.24788,9.33942 -16.60923,29.71934 -30.57087,54.83784 -6.41985,11.55 -12.08556,21.675 -12.59048,22.5 -1.22152,1.99588 -9.42997,16.8705 -13.79605,25 -1.92001,3.575 -3.82849,6.95 -4.24107,7.5 -0.80478,1.07285 -2.63935,4.34609 -11.2095,20 -3.01112,5.5 -8.62685,15.625 -12.4794,22.5 -3.85255,6.875 -8.33216,14.975 -9.95468,18 -1.62252,3.025 -9.72394,17.65 -18.00316,32.5 -8.27921,14.85 -16.97951,30.6 -19.334,35 -2.35449,4.4 -4.61645,8.45 -5.02657,9 -0.41013,0.55 -3.20522,5.5 -6.21132,11 -3.0061,5.5 -8.61442,15.625 -12.46293,22.5 -3.84852,6.875 -8.57545,15.425 -10.5043,19 -6.50569,12.0579 -28.04702,50.48371 -29.41584,52.47251 -3.07279,4.46456 -2.99362,4.4781 28.3924,4.85473 37.09014,0.44508 395.2762,-0.0201 395.77009,-0.514 z M 400.67895,573.34562 C 400.30553,572.9722 400,563.45346 400,552.19286 c 0,-18.66441 0.18187,-20.83796 2.05794,-24.59443 1.26564,-2.53419 3.55565,-4.9826 5.94812,-6.35953 3.66409,-2.10878 5.02232,-2.2389 23.37063,-2.2389 16.37617,0 19.73087,-0.25041 21.05188,-1.57143 1.64168,-1.64167 1.95896,-4.38088 0.94543,-8.16219 -0.59783,-2.23041 -0.63621,-2.23399 -26.73635,-2.5 L 400.5,506.5 l -0.28587,-9.72194 c -0.28363,-9.64546 -0.26614,-9.7269 2.22275,-10.35157 1.37974,-0.3463 15.45839,-0.46845 31.28587,-0.27146 26.27831,0.32706 29.05505,0.52567 31.97638,2.28712 1.75952,1.06093 4.23452,3.30797 5.5,4.99341 2.18438,2.90929 2.30087,3.89982 2.30087,19.56444 0,14.79568 -0.20073,16.76409 -1.94328,19.05672 -1.0688,1.4062 -3.0938,3.4312 -4.5,4.5 -2.2913,1.74155 -4.76673,1.99519 -23.84544,2.44328 -17.45204,0.40989 -21.4592,0.77033 -22.23468,2 -1.14277,1.81205 -1.25664,10.01092 -0.16296,11.73271 0.58027,0.91352 7.50274,1.30192 26.73469,1.5 L 473.5,554.5 l 0,9.5 0,9.5 -36.07105,0.26229 c -19.83907,0.14425 -36.37657,-0.0433 -36.75,-0.41667 z M 471.5,564 l 0,-7.5 -25.95167,-0.26729 c -19.23195,-0.19808 -26.15442,-0.58648 -26.73469,-1.5 -1.10328,-1.73691 -0.97704,-13.92504 0.16296,-15.73271 0.77548,-1.22967 4.78264,-1.59011 22.23468,-2 19.07871,-0.44809 21.55414,-0.70173 23.84544,-2.44328 1.4062,-1.0688 3.4312,-3.0938 4.5,-4.5 C 471.2742,527.79708 471.5,525.81514 471.5,513 c 0,-13.57745 -0.14639,-14.69497 -2.30087,-17.56444 -1.26548,-1.68544 -3.74048,-3.92893 -5.5,-4.98552 -2.89588,-1.73897 -5.73558,-1.95623 -29.95708,-2.29197 -14.71687,-0.20399 -27.89806,-0.0847 -29.29153,0.26499 -2.47153,0.62032 -2.52645,0.82499 -2.24205,8.35642 L 402.5,504.5 l 26.13765,0.26638 c 26.10014,0.26601 26.13852,0.26959 26.73635,2.5 0.32928,1.22849 0.60484,4.11398 0.61235,6.41219 0.0234,7.16475 -0.46045,7.32143 -22.60966,7.32143 -18.34831,0 -19.70654,0.13012 -23.37063,2.2389 -2.39247,1.37693 -4.68248,3.82534 -5.94812,6.35953 -1.85429,3.71286 -2.05794,5.94879 -2.05794,22.59443 0,10.1606 0.30581,18.77962 0.67958,19.15339 0.37377,0.37377 16.01127,0.56127 34.75,0.41667 L 471.5,571.5 l 0,-7.5 z m 29.41828,7.77509 c -1.96994,-1.17501 -4.55744,-3.83174 -5.75,-5.90385 C 493.14715,562.35944 493,560.78244 493,542.63367 c 0,-10.70855 0.27314,-20.1819 0.60699,-21.05188 C 494.09675,520.30548 495.91079,520 503,520 c 7.08921,0 8.90325,0.30548 9.39301,1.58179 0.33385,0.86998 0.60699,7.81284 0.60699,15.42857 0,11.25465 0.29417,14.14096 1.57143,15.41821 1.32831,1.32831 4.77066,1.56906 22.25,1.55612 11.37321,-0.008 21.35357,-0.4413 22.17857,-0.96195 1.23328,-0.77832 1.55447,-4.47175 1.80632,-20.77145 0.18426,-11.92449 -0.10268,-20.90059 -0.72004,-22.52434 L 559.05992,507.02741 526.27996,506.7637 493.5,506.5 l -0.30868,-3.72179 c -0.41275,-4.97645 3.52296,-11.64039 8.43268,-14.27821 3.50219,-1.8816 5.63008,-2 35.94474,-2 29.28463,0 32.39842,0.15954 34.15546,1.75 1.0633,0.9625 2.4159,1.75 3.00576,1.75 0.58987,0 2.12944,1.6875 3.42126,3.75 2.3162,3.69798 2.35298,4.18455 2.65182,35.07471 0.29385,30.37537 0.23758,31.45994 -1.85693,35.78661 -1.19375,2.46597 -3.78162,5.56384 -5.78517,6.92529 L 569.53573,574 537.01787,573.9557 c -31.38431,-0.0427 -32.64273,-0.11874 -36.09959,-2.18064 z m 70.24266,-2.23848 c 2.00538,-1.36269 4.59163,-4.45976 5.78808,-6.93131 2.09046,-4.31831 2.15264,-5.44962 1.85693,-33.78661 -0.30033,-28.7802 -0.34909,-29.38756 -2.65473,-33.06869 -1.29182,-2.0625 -2.83139,-3.75 -3.42126,-3.75 -0.58986,0 -1.94255,-0.7875 -3.00596,-1.75 -1.75289,-1.58653 -4.79602,-1.75 -32.57875,-1.75 -29.86425,0 -30.73445,0.0562 -34.14525,2.20375 -3.95936,2.49299 -8.63603,10.1964 -7.68876,12.66493 0.56109,1.4622 4.00108,1.63132 33.18213,1.63132 l 32.55613,0 1.02781,2.70333 c 0.62618,1.64698 0.90957,11.23541 0.72525,24.5379 -0.25068,18.09018 -0.55979,21.99694 -1.80256,22.78136 -0.82787,0.52254 -11.66194,0.95365 -24.17857,0.9621 -19.29743,0.013 -22.91286,-0.21897 -24.25,-1.55612 C 511.29417,553.15132 511,550.26501 511,539.01036 c 0,-7.61573 -0.27314,-14.55859 -0.60699,-15.42857 C 509.92203,522.35443 508.26547,522 503,522 c -5.26547,0 -6.92203,0.35443 -7.39301,1.58179 -0.33385,0.86998 -0.60699,9.44333 -0.60699,19.05188 0,16.09702 0.17042,17.7662 2.16828,21.23757 1.19256,2.07211 3.78006,4.72884 5.75,5.90385 3.44365,2.05402 4.75811,2.13808 34.09959,2.18064 l 30.51786,0.0443 3.62521,-2.46339 z M 256.63233,626.25 c -0.78047,-1.5125 -3.5408,-7.475 -6.13408,-13.25 -5.07176,-11.29435 -25.71378,-56.32765 -30.71096,-67 -1.67394,-3.575 -5.51207,-11.9 -8.52917,-18.5 -3.01711,-6.6 -6.73774,-14.7 -8.26807,-18 C 189.16014,479.67725 186,472.77782 186,472.40621 c 0,-0.23588 -2.29886,-5.26128 -5.10858,-11.16754 -4.93082,-10.36502 -13.25586,-28.38758 -17.8943,-38.73867 -1.2323,-2.75 -4.70257,-10.175 -7.71171,-16.5 -3.00914,-6.325 -7.48941,-16 -9.95617,-21.5 -5.5315,-12.33334 -7.29575,-16.11569 -16.32544,-35 -3.9448,-8.25 -7.98424,-17.025 -8.97653,-19.5 -0.99228,-2.475 -4.60787,-10.35 -8.03463,-17.5 C 102.2738,292.22146 101,289.14962 101,285.99054 c 0,-3.4644 0.39618,-3.59511 13.5,-4.45396 30.08763,-1.97201 39.14583,-2.58962 58.5,-3.98869 11.825,-0.8548 30.725,-2.23909 42,-3.0762 26.51071,-1.96829 43.04829,-3.1669 61,-4.42118 24.68449,-1.7247 56.91593,-4.05062 70,-5.05142 6.875,-0.52587 19.475,-1.43045 28,-2.01018 8.525,-0.57974 20.9,-1.48571 27.5,-2.01327 26.20364,-2.09456 61.77244,-4.02395 63.58384,-3.44903 1.08947,0.34578 1.91616,1.51715 1.91616,2.71507 0,1.15879 -3.67729,8.89097 -8.17175,17.18261 -4.49447,8.29164 -9.73349,18.00071 -11.64228,21.57571 -1.90879,3.575 -6.62467,12.125 -10.47974,19 -3.85506,6.875 -10.42854,18.70665 -14.60772,26.29257 -4.17918,7.58591 -8.65209,15.68591 -9.9398,18 -1.28771,2.31408 -8.20692,14.78243 -15.37603,27.70743 -17.20861,31.02499 -17.01865,30.68639 -20.642,36.79401 -1.72738,2.9117 -3.14068,5.47966 -3.14068,5.70658 0,0.36707 -10.70876,19.69914 -13.01721,23.49941 -1.05799,1.74171 -18.17197,32.66125 -22.97027,41.5 -1.79148,3.3 -4.04654,7.35 -5.01126,9 -0.96471,1.65 -2.87185,5.025 -4.23807,7.5 -1.36622,2.475 -3.60693,6.525 -4.97935,9 -1.37242,2.475 -4.97444,9 -8.00449,14.5 -5.16899,9.38249 -9.67744,17.42833 -32.78026,58.5 -5.10469,9.075 -10.86625,19.425 -12.80347,23 -1.93722,3.575 -4.19348,7.2875 -5.01391,8.25 -2.28762,2.68377 -5.89509,2.20592 -7.54938,-1 z m 10.17878,-8.59116 c 2.13757,-3.93736 8.06761,-14.58384 13.17786,-23.65884 20.02682,-35.56445 27.49662,-48.89103 32.79038,-58.5 3.03005,-5.5 6.63207,-12.025 8.00449,-14.5 1.37242,-2.475 3.61313,-6.525 4.97935,-9 1.36622,-2.475 3.27336,-5.85 4.23807,-7.5 0.96472,-1.65 3.21978,-5.7 5.01126,-9 4.7983,-8.83875 21.91228,-39.75829 22.97027,-41.5 C 360.29124,450.19973 371,430.86766 371,430.50059 c 0,-0.22692 1.4133,-2.79488 3.14068,-5.70658 3.62335,-6.10762 3.43339,-5.76902 20.642,-36.79401 7.16911,-12.925 14.08832,-25.39335 15.37603,-27.70743 1.28771,-2.31409 5.76062,-10.41409 9.9398,-18 4.17918,-7.58592 10.74925,-19.41757 14.60016,-26.29257 3.85091,-6.875 9.06006,-16.325 11.57589,-21 2.51584,-4.675 7.73525,-14.34499 11.59869,-21.48887 5.14716,-9.51759 6.68341,-13.17973 5.74835,-13.70302 -1.20181,-0.67257 -31.86765,0.93875 -59.6216,3.13277 -6.875,0.54349 -19.475,1.46379 -28,2.04512 -8.525,0.58133 -21.125,1.48722 -28,2.01309 -13.08407,1.0008 -45.31551,3.32672 -70,5.05142 -17.95171,1.25428 -34.48929,2.45289 -61,4.42118 -46.33342,3.44001 -71.3225,5.20053 -101.67819,7.16338 -5.59801,0.36198 -10.72725,0.99747 -11.39832,1.41222 -1.50991,0.93317 -0.67225,3.0912 9.03505,23.27663 3.9209,8.15316 7.97131,16.92816 9.00091,19.5 1.02959,2.57185 5.09955,11.42608 9.04435,19.67608 9.02969,18.88431 10.79394,22.66666 16.32544,35 2.46676,5.5 6.94703,15.175 9.95617,21.5 3.00914,6.325 6.47941,13.75 7.71171,16.5 4.63844,10.35109 12.96348,28.37365 17.8943,38.73867 2.80972,5.90626 5.10858,10.93166 5.10858,11.16754 0,0.37161 3.16014,7.27104 16.99005,37.09379 1.53033,3.3 5.25096,11.4 8.26807,18 3.0171,6.6 6.85523,14.925 8.52917,18.5 4.99718,10.67235 25.6392,55.70565 30.71096,67 7.15257,15.92814 7.39621,16.33248 9.02633,14.9796 0.77002,-0.63906 3.14896,-4.3834 5.28653,-8.32076 z M 271,425.58947 c -3.575,-1.91487 -7.85,-4.17644 -9.5,-5.02571 -6.94307,-3.57369 -14.23565,-7.98635 -17.61324,-10.65758 -2.49564,-1.97373 -4.00462,-4.25549 -4.87859,-7.377 -2.0606,-7.35974 -0.91381,-11.3541 7.47304,-26.02918 1.2573,-2.2 3.55368,-6.475 5.10306,-9.5 1.54938,-3.025 3.49251,-6.31072 4.31808,-7.30161 1.36724,-1.64101 1.23792,-2.01665 -1.45066,-4.21404 -1.62343,-1.32683 -4.10584,-2.42861 -5.51648,-2.44839 -1.90667,-0.0267 -2.98811,0.79798 -4.21455,3.21404 -0.90737,1.7875 -3.93742,7.3 -6.73343,12.25 -2.79602,4.95 -5.74741,10.35 -6.55866,12 -0.81124,1.65 -2.9873,5.7 -4.83568,9 -2.79442,4.98902 -3.86031,6.0509 -6.32588,6.3021 -2.71948,0.27707 -10.36254,-2.97664 -13.91205,-5.92247 -2.59979,-2.15763 -2.00447,-3.89375 6.64524,-19.37963 2.15044,-3.85 4.58284,-8.35 5.40533,-10 0.82248,-1.65 3.08837,-5.7 5.0353,-9 1.94693,-3.3 4.12437,-7.125 4.83875,-8.5 3.625,-6.97718 6.04359,-9.80689 10.12371,-11.8446 3.49858,-1.74727 5.32399,-2.06283 8.75823,-1.51403 4.56161,0.72896 9.67317,2.8761 16.33848,6.86307 2.2,1.31597 4.91214,2.81652 6.02698,3.33457 1.11484,0.51805 3.40574,2.22987 5.09091,3.80404 3.74795,3.50112 6.27305,12.26223 4.52392,15.69628 -0.6053,1.18837 -1.56423,3.28567 -2.13097,4.66067 -0.56674,1.375 -2.80655,5.65 -4.97735,9.5 -2.17081,3.85 -5.6539,10.29429 -7.7402,14.32065 l -3.79329,7.32064 2.95247,2.17936 c 3.95587,2.92001 8.05176,4.61216 9.25443,3.8233 0.53995,-0.35417 3.15875,-4.69395 5.81954,-9.64395 2.66078,-4.95 5.87502,-10.8 7.14274,-13 1.26772,-2.2 2.60613,-4.675 2.97423,-5.5 0.3681,-0.825 2.41877,-4.5375 4.55705,-8.25 3.39059,-5.8868 4.25845,-6.75 6.78649,-6.75 4.92904,0 15.0873,6.74793 14.93996,9.92431 -0.0402,0.86663 -0.94114,2.92569 -2.00208,4.57569 -1.06095,1.65 -2.62329,4.35 -3.47187,6 -0.84858,1.65 -3.30241,6.15 -5.45296,10 -2.15055,3.85 -4.58714,8.35 -5.41464,10 -0.8275,1.65 -3.29725,6.15 -5.48833,10 -2.19107,3.85 -5.39674,9.8125 -7.12369,13.25 -1.72696,3.4375 -3.43994,6.25614 -3.80663,6.26365 -0.36669,0.008 -1.56671,0.2485 -2.66671,0.53553 -1.19113,0.31081 -4.62882,-0.8862 -8.5,-2.95971 z M 283.97063,419.75 c 2.90509,-5.78758 4.42083,-8.57236 12.1105,-22.25 1.54607,-2.75 4.21716,-7.7 5.93576,-11 1.7186,-3.3 4.19471,-7.8 5.50247,-10 4.27986,-7.19986 4.69477,-8.6082 3.0609,-10.38985 -0.81212,-0.88558 -3.57018,-2.7092 -6.12904,-4.05249 l -4.65245,-2.44234 -1.78165,2.36199 c -0.97991,1.29909 -3.21951,5.09814 -4.9769,8.44234 -1.75738,3.34419 -4.96007,9.23035 -7.11708,13.08035 -2.15701,3.85 -5.36617,9.82753 -7.13147,13.2834 -3.58276,7.01387 -5.82247,8.25616 -11.06108,6.13517 C 261.8771,400.54862 259,397.85394 259,394.74153 c 0,-2.50428 4.93083,-12.71148 12.6766,-26.24153 1.25947,-2.2 2.74767,-5.125 3.3071,-6.5 0.55944,-1.375 1.40127,-3.17619 1.87073,-4.00265 0.50728,-0.89302 0.30652,-3.37879 -0.49484,-6.12705 -1.25821,-4.31506 -4.55464,-7.92214 -9.35959,-10.24163 -0.825,-0.39825 -3.3,-1.80247 -5.5,-3.12049 C 254.3965,334.25246 248.82331,332 245.39705,332 c -5.80259,0 -10.75867,4.24501 -15.17759,13 -0.69401,1.375 -2.84958,5.2 -4.79017,8.5 -1.94058,3.3 -4.20128,7.35 -5.02376,9 -0.82249,1.65 -3.25489,6.15 -5.40533,10 -7.5346,13.48945 -7.8951,14.34234 -6.53823,15.46843 2.62414,2.17785 10.88429,6.11267 11.96301,5.69873 0.62138,-0.23844 2.39106,-2.8486 3.93263,-5.80035 1.54157,-2.95174 3.80222,-7.16681 5.02367,-9.36681 1.22145,-2.2 4.07786,-7.375 6.34758,-11.5 2.26971,-4.125 5.17127,-9.39183 6.44789,-11.70407 3.34853,-6.06493 7.68962,-6.6726 14.05391,-1.96728 1.85932,1.37466 2.76934,2.95209 2.76934,4.80039 0,1.51411 -0.41488,3.00934 -0.92196,3.32273 -0.50708,0.31339 -2.35192,3.37745 -4.09965,6.80902 -1.74772,3.43156 -4.21854,8.03921 -5.4907,10.23921 -3.53744,6.11744 -7.29673,13.75168 -7.98016,16.20584 -1.05961,3.80502 1.54599,10.16883 5.417,13.23025 3.40055,2.68935 11.05895,7.30762 17.57547,10.59858 1.65,0.83329 5.25,2.82397 8,4.42374 7.59484,4.4182 8.79777,4.10871 12.47063,-3.20841 z m 430.22993,207 c -0.61625,-1.2375 -2.77054,-5.175 -4.78729,-8.75 -3.97922,-7.05377 -4.93433,-8.77658 -14.41424,-26 -3.48133,-6.325 -7.2678,-13.16744 -8.41436,-15.20541 -1.14657,-2.03798 -4.73014,-8.56298 -7.9635,-14.5 C 675.38781,556.35756 668.24386,543.4 662.74573,533.5 c -19.11193,-34.41312 -25.52229,-46.05204 -30.29235,-55 -2.63879,-4.95 -5.77449,-10.575 -6.96821,-12.5 -1.19372,-1.925 -4.22915,-7.325 -6.74539,-12 -2.51624,-4.675 -5.62457,-10.38776 -6.90738,-12.69502 -1.28282,-2.30726 -5.00102,-9.05726 -8.26267,-15 -3.26166,-5.94274 -10.79916,-19.51343 -16.75,-30.15708 C 580.86888,385.50424 576,376.57214 576,376.29878 c 0,-0.27336 -2.39761,-4.61491 -5.32803,-9.6479 C 567.74156,361.6179 563.38206,353.9 560.98421,349.5 c -2.39786,-4.4 -5.35472,-9.8 -6.57082,-12 C 544.0348,318.72435 536,303.79099 536,303.27714 c 0,-0.34081 -0.61444,-1.33009 -1.36543,-2.1984 -0.75099,-0.86831 -5.92599,-9.9588 -11.5,-20.20109 C 517.56056,270.63536 513,261.07286 513,259.62765 513,257.11247 513.23309,257 518.44553,257 c 2.99504,0 10.98254,0.4281 17.75,0.95133 6.76746,0.52323 22.65447,1.66103 35.30447,2.52845 12.65,0.86742 28.4,1.99686 35,2.50988 6.6,0.51302 18.975,1.41796 27.5,2.01097 8.525,0.59302 24.05,1.72426 34.5,2.51387 10.45,0.7896 26.2,1.90114 35,2.47007 8.8,0.56893 18.475,1.27501 21.5,1.56906 3.025,0.29405 12.025,0.94464 20,1.44575 7.975,0.5011 30.025,2.08104 49,3.51096 31.81523,2.39754 43.20241,3.2007 72,5.07832 5.775,0.37653 11.2875,1.08895 12.25,1.58315 1.05316,0.54076 1.75,2.04458 1.75,3.77659 0,1.58291 -2.8679,8.87958 -6.37312,16.21481 -3.50521,7.33524 -8.41873,17.83679 -10.91893,23.33679 -2.5002,5.5 -7.55051,16.3 -11.22292,24 -11.24095,23.56912 -14.04348,29.51249 -20.27619,43 -3.30409,7.15 -8.97774,19.21216 -12.60813,26.8048 C 814.97032,427.89744 812,434.27472 812,434.47653 c 0,0.20181 -4.10266,9.06465 -9.11703,19.6952 -5.01437,10.63055 -10.5907,22.47827 -12.39186,26.32827 -11.07389,23.6706 -18.84842,40.25062 -22.97657,49 -2.59502,5.5 -5.86198,12.475 -7.25992,15.5 -2.23568,4.83778 -6.7555,14.44521 -23.75773,50.5 -2.33426,4.95 -6.38765,13.725 -9.00755,19.5 -2.61989,5.775 -5.44651,11.2875 -6.28138,12.25 -2.13092,2.4567 -5.66042,2.20485 -7.0074,-0.5 z M 725.50327,613 c 2.61223,-5.775 6.65936,-14.55 8.99362,-19.5 17.00223,-36.05479 21.52205,-45.66222 23.75773,-50.5 1.39794,-3.025 4.6649,-10 7.25992,-15.5 4.12815,-8.74938 11.90268,-25.3294 22.97657,-49 1.80116,-3.85 7.37749,-15.69772 12.39186,-26.32827 C 805.89734,441.54118 810,432.67834 810,432.47653 c 0,-0.20181 2.97032,-6.57909 6.60071,-14.17173 3.63039,-7.59264 9.30404,-19.6548 12.60813,-26.8048 6.23271,-13.48751 9.03524,-19.43088 20.27619,-43 3.67241,-7.7 8.72272,-18.5 11.22292,-24 2.5002,-5.5 7.41372,-16.00155 10.91893,-23.33679 C 875.1321,293.82798 878,287.43131 878,286.9484 c 0,-1.78847 -3.76737,-2.69257 -14,-3.35974 -28.79759,-1.87762 -40.18477,-2.68078 -72,-5.07832 -18.975,-1.42992 -41.025,-3.00986 -49,-3.51096 -7.975,-0.50111 -16.975,-1.1517 -20,-1.44575 -3.025,-0.29405 -12.7,-1.0016 -21.5,-1.57232 -8.8,-0.57072 -24.775,-1.69887 -35.5,-2.50699 -44.10831,-3.32354 -62.25993,-4.63596 -76.5,-5.5312 -8.25,-0.51866 -20.4,-1.3771 -27,-1.90763 -26.32909,-2.11646 -46.57409,-3.29473 -47.12606,-2.74277 -0.60244,0.60245 18.84172,36.98922 21.26063,39.78602 0.75099,0.86831 1.36543,1.85759 1.36543,2.1984 0,0.51385 8.0348,15.44721 18.41339,34.22286 1.2161,2.2 4.17296,7.6 6.57082,12 2.39785,4.4 6.75735,12.1179 9.68776,17.15088 2.93042,5.03299 5.32803,9.37454 5.32803,9.6479 0,0.27336 4.86888,9.20546 10.81973,19.84912 5.95084,10.64365 13.48834,24.21434 16.75,30.15708 3.26165,5.94274 6.97985,12.69274 8.26267,15 1.28281,2.30726 4.39114,8.02002 6.90738,12.69502 2.51624,4.675 5.55167,10.075 6.74539,12 1.19372,1.925 4.32942,7.55 6.96821,12.5 4.77006,8.94796 11.18042,20.58688 30.29235,55 5.49813,9.9 12.64208,22.85756 15.87544,28.79459 3.23336,5.93702 6.81693,12.46202 7.9635,14.5 1.14656,2.03797 4.93303,8.88041 8.41436,15.20541 9.47991,17.22342 10.43502,18.94623 14.41424,26 2.01675,3.575 4.17973,7.53158 4.80661,8.79239 1.09237,2.19704 1.21037,2.21783 2.83682,0.5 0.93338,-0.98581 3.83433,-6.51739 6.44657,-12.29239 z M 699.53259,459.74368 c -1.08208,-1.78403 -2.34327,-4.13443 -2.80265,-5.22312 -0.45938,-1.08869 -1.52271,-2.73908 -2.36295,-3.66753 -2.78242,-3.07455 -1.27916,-5.85059 5.13301,-9.47897 3.3,-1.86734 7.35,-4.08053 9,-4.9182 5.46352,-2.77373 11.98263,-6.53849 12.88543,-7.44129 0.84607,-0.84607 -0.58567,-4.03715 -6.73659,-15.01457 -1.3868,-2.475 -3.93524,-7.30765 -5.66319,-10.73921 -1.72795,-3.43157 -3.4975,-6.4591 -3.93234,-6.72784 -1.49938,-0.92667 -2.094,-8.66812 -0.98277,-12.79491 1.35537,-5.03348 5.59349,-9.10717 14.11557,-13.56792 6.84471,-3.58276 6.48607,-3.38306 15.4447,-8.59995 8.41292,-4.89912 10.30434,-4.73246 13.39008,1.17983 1.36351,2.6125 3.04161,5.10986 3.72911,5.54969 1.35729,0.86833 1.67031,5.55336 0.48469,7.25435 -0.40408,0.57972 -2.75969,2.11242 -5.23469,3.406 -2.475,1.29358 -6.75,3.53022 -9.5,4.9703 -7.92349,4.14927 -9.50445,5.41628 -9.43355,7.56021 0.0365,1.1052 1.37536,4.25945 2.97514,7.00945 1.59977,2.75 3.54895,6.40757 4.33151,8.12792 0.78256,1.72036 1.91875,3.43442 2.52487,3.80902 0.60611,0.3746 1.10203,1.48479 1.10203,2.46709 0,2.32303 3.55555,5.52406 5.21275,4.693 0.70799,-0.35505 4.43725,-2.42735 8.28725,-4.60512 3.85,-2.17777 8.2375,-4.46088 9.75,-5.07357 1.5125,-0.6127 2.75,-1.51997 2.75,-2.01617 0,-0.49619 1.28026,-0.90217 2.84501,-0.90217 3.02874,0 5.50105,2.128 6.57544,5.65969 0.36135,1.18784 1.31458,2.70544 2.11828,3.37245 0.85902,0.71293 1.45128,2.91389 1.43704,5.3403 -0.0236,4.02672 -0.16413,4.19522 -5.75,6.89681 -3.14917,1.52309 -8.87577,4.54861 -12.72577,6.72338 -3.85,2.17477 -8.35,4.62292 -10,5.44034 -1.65,0.81742 -6.15,3.27892 -10,5.47 -3.85,2.19107 -9.7,5.41228 -13,7.15823 -6.87836,3.63917 -10.03875,5.36229 -16.87595,9.20113 -2.68178,1.50572 -5.38178,2.73482 -6,2.73135 -0.61823,-0.003 -2.00939,-1.46598 -3.09146,-3.25 z M 723.5,449.01954 c 3.85,-2.11692 8.575,-4.70317 10.5,-5.74723 8.07843,-4.38146 15.92843,-8.68724 22.5,-12.34141 3.85,-2.14082 9.5766,-5.13856 12.72577,-6.66165 6.33069,-3.06182 7.06519,-4.8126 3.77423,-8.99638 -1.1,-1.39842 -2,-3.08716 -2,-3.75274 0,-0.66559 -0.92747,-2.04951 -2.06105,-3.07538 -1.33508,-1.20823 -2.30372,-1.49331 -2.75,-0.80936 -0.37892,0.58072 -1.91351,1.68783 -3.4102,2.46024 -1.49669,0.7724 -5.32169,2.73975 -8.5,4.37188 -3.17831,1.63213 -6.85194,3.76963 -8.16361,4.75 C 744.80347,420.19788 743.03247,421 742.17959,421 740.02268,421 736,417.01917 736,414.8847 c 0,-0.97166 -0.49592,-2.07316 -1.10203,-2.44776 -0.60612,-0.3746 -1.7419,-2.08866 -2.52395,-3.80902 -0.78205,-1.72035 -2.73316,-5.45001 -4.33581,-8.28812 -1.60264,-2.83811 -3.20281,-6.7003 -3.55594,-8.58264 -0.56141,-2.99256 -0.2866,-3.6604 2.18784,-5.31686 3.71417,-2.48639 16.10559,-9.17115 19.49972,-10.51947 3.15563,-1.25357 4.47143,-3.9485 2.6346,-5.39602 -0.71744,-0.56538 -2.42003,-3.16475 -3.78354,-5.77639 C 743.65737,362.13679 742.35714,360 742.13148,360 c -0.22565,0 -2.66262,1.38588 -5.41547,3.07972 -2.75286,1.69385 -5.95263,3.49706 -7.1106,4.00714 -3.42235,1.50751 -12.81116,6.87705 -16.925,9.67955 -2.10077,1.43112 -4.51524,3.94729 -5.36548,5.59148 -1.88581,3.64674 -1.92646,10.25751 -0.0768,12.49569 0.74833,0.90553 2.61199,4.12142 4.14148,7.14642 1.52949,3.025 3.913,7.525 5.29669,10 6.87387,12.29528 8.60358,16.33281 7.64686,17.84953 -0.89666,1.4215 -6.68598,5.0256 -13.82312,8.6055 -1.65,0.82762 -3.675,1.93974 -4.5,2.47139 -0.825,0.53164 -3.63683,2.15806 -6.24852,3.61426 l -4.74852,2.64763 1.99852,2.5407 c 1.09919,1.39739 1.99852,2.94824 1.99852,3.44634 0,0.4981 0.96132,2.20589 2.13626,3.79509 l 2.13627,2.88945 6.61373,-3.49571 c 3.63756,-1.92263 9.76374,-5.22773 13.61374,-7.34464 z m -67.40122,-68.5767 C 654.94445,378.4864 654,376.64488 654,376.35057 c 0,-0.29431 -0.9,-1.67928 -2,-3.0777 -2.48706,-3.16178 -2.61352,-7.14606 -0.25,-7.87641 0.9625,-0.29742 2.425,-0.95158 3.25,-1.45369 0.825,-0.50212 2.85,-1.59983 4.5,-2.43937 1.65,-0.83953 6.15,-3.2874 10,-5.4397 3.85,-2.15231 9.7,-5.32899 13,-7.0593 3.3,-1.73031 7.8,-4.18677 10,-5.45881 2.2,-1.27205 6.3625,-3.56377 9.25,-5.09272 3.92812,-2.07996 5.25,-3.34031 5.25,-5.00561 0,-3.0319 2.54552,-5.70065 8.57223,-8.98724 6.66791,-3.63624 9.51441,-2.97821 12.33672,2.85191 2.55759,5.28326 2.69302,12.09336 0.33684,16.93741 -1.54916,3.1849 -5.7325,6.88954 -10.24579,9.07337 -0.825,0.39919 -4.65,2.48611 -8.5,4.63759 -3.85,2.15149 -9.475,5.24737 -12.5,6.87972 -3.025,1.63236 -7.525,4.10748 -10,5.50026 -2.475,1.39279 -7.2,3.93966 -10.5,5.65972 -3.3,1.72006 -7.98328,4.22372 -10.40728,5.56369 -2.42401,1.33997 -5.19206,2.43631 -6.15123,2.43631 -0.95917,0 -2.68839,-1.60072 -3.84271,-3.55716 z M 674.5,374 c 3.3,-1.72006 8.025,-4.26693 10.5,-5.65972 2.475,-1.39278 6.975,-3.8679 10,-5.50026 3.025,-1.63235 8.65,-4.72823 12.5,-6.87972 3.85,-2.15148 7.675,-4.2384 8.5,-4.63759 7.16606,-3.46741 12,-9.62659 12,-15.28983 0,-2.89338 -3.292,-9.97728 -5.17839,-11.14313 -1.37937,-0.8525 -9.43545,3.39269 -12.07161,6.36119 -0.9625,1.08385 -1.75,2.97219 -1.75,4.19632 0,1.6653 -1.32188,2.92565 -5.25,5.00561 -2.8875,1.52895 -7.05,3.82067 -9.25,5.09272 -2.2,1.27204 -6.7,3.7285 -10,5.45881 -3.3,1.73031 -9.15,4.90699 -13,7.0593 -3.85,2.1523 -8.35,4.60017 -10,5.4397 -1.65,0.83954 -3.675,1.93725 -4.5,2.43937 -0.825,0.50211 -2.30691,1.16372 -3.29312,1.47024 -1.8774,0.58351 -1.86247,0.63636 1.82395,6.45885 0.56696,0.89548 1.79833,3.05645 2.73639,4.80216 l 1.70556,3.17403 4.26361,-2.36034 C 666.58138,378.18953 671.2,375.72006 674.5,374 z M 837,261.44292 c -7.425,-0.71954 -20.7,-1.80244 -29.5,-2.40645 -40.57841,-2.78519 -58.45367,-4.05369 -77,-5.46425 -24.76817,-1.88377 -68.02253,-5.05707 -96.5,-7.07961 -11.825,-0.83984 -32.975,-2.40034 -47,-3.46778 -14.025,-1.06744 -36.075,-2.65578 -49,-3.52965 -30.52354,-2.06373 -33.45975,-2.37966 -35.41689,-3.81075 -1.33444,-0.97577 -1.81105,-4.27694 -2.55429,-17.69202 C 498.85532,196.81142 497.48718,60.5471 498.3992,55.685598 499.03147,52.315339 499.37524,52 502.41712,52 c 3.34786,0 6.6923,1.741968 34.58288,18.012676 6.875,4.010713 16.55,9.641193 21.5,12.512177 11.66432,6.76527 46.4787,27.081217 88.28491,51.518717 18.3067,10.70103 34.53413,20.13143 36.06095,20.95643 1.52682,0.825 11.22609,6.45 21.55394,12.5 10.32785,6.05 20.20043,11.83174 21.93906,12.84832 7.90869,4.6242 39.89711,23.25585 41.46567,24.15168 1.89981,1.08501 21.23378,12.36649 23.99966,14.00395 0.9327,0.55217 5.223,3.02717 9.53402,5.5 4.31101,2.47283 8.59791,4.94605 9.52644,5.49605 2.7202,1.61127 22.01249,12.76411 27.0307,15.6264 12.79258,7.29664 19.51928,11.58381 20.42282,13.01624 0.55007,0.87203 0.71763,2.32168 0.37236,3.22144 -0.74064,1.93007 -2.52075,1.93654 -21.69053,0.0788 z m 18.76373,-1.65174 c -0.36366,-1.09096 -7.05547,-5.35654 -19.86838,-12.66478 -5.01821,-2.86229 -24.3105,-14.01513 -27.0307,-15.6264 -0.92853,-0.55 -5.21543,-3.02322 -9.52644,-5.49605 -4.31102,-2.47283 -8.60132,-4.94783 -9.53402,-5.5 C 787.03831,218.86649 767.70434,207.58501 765.80453,206.5 764.23597,205.60417 732.24755,186.97252 724.33886,182.34832 722.60023,181.33174 712.72765,175.55 702.3998,169.5 692.07195,163.45 682.37268,157.825 680.84586,157 679.31904,156.175 663.09161,146.7446 644.78491,136.04357 602.9787,111.60607 568.16432,91.290123 556.5,84.524853 551.55,81.653869 541.875,76.023389 535,72.012676 511.12728,58.085892 503.73636,54 502.41712,54 c -0.73556,0 -1.6327,1.632206 -2.01384,3.663858 -0.90346,4.815864 0.45802,137.080602 1.62978,158.328552 0.73998,13.41855 1.21527,16.716 2.55005,17.69202 1.95714,1.43109 4.89335,1.74702 35.41689,3.81075 12.925,0.87387 34.975,2.46221 49,3.52965 14.025,1.06744 35.175,2.62794 47,3.46778 28.47747,2.02254 71.73183,5.19584 96.5,7.07961 18.54633,1.41056 36.42159,2.67906 77,5.46425 8.8,0.60401 22.075,1.68691 29.5,2.40645 17.97279,1.7417 17.22302,1.72613 16.76373,0.34826 z M 656.94655,207.7182 c -0.8544,-0.67001 -2.98648,-3.31639 -4.73794,-5.88085 -1.75147,-2.56445 -3.75242,-4.85292 -4.44655,-5.08549 -0.69413,-0.23256 -3.06206,-0.0182 -5.26206,0.47626 -2.2,0.49451 -7.375,1.53586 -11.5,2.31412 -4.125,0.77826 -9.70533,1.87371 -12.40073,2.43434 -5.71582,1.18887 -10.58724,0.18001 -15.66988,-3.24518 C 598.951,196.05036 591.55487,185.97629 589.91143,181 c -0.63574,-1.925 -3.57588,-8.41707 -6.53366,-14.42681 C 580.42,160.56344 578,154.61677 578,153.35837 c 0,-2.82069 2.19687,-4.06348 8.57703,-4.8521 3.92934,-0.48568 5.57352,-0.20077 8.14613,1.4116 1.77274,1.11105 3.51622,3.18772 3.8744,4.61481 0.35818,1.4271 3.23032,7.40356 6.38255,13.28102 5.39141,10.05254 5.93261,10.70732 9.1256,11.04078 4.47859,0.46773 22.89602,-3.01586 22.88813,-4.3292 C 636.99045,173.96137 636.36755,172.375 635.60961,171 626.88765,155.17715 625,151.31665 625,149.30186 625,146.57698 628.17601,145 633.66389,145 c 2.59384,0 4.23883,0.75575 6.1849,2.84152 1.45817,1.56283 3.32621,4.14762 4.15121,5.74398 0.825,1.59635 7.2375,12.89752 14.25,25.1137 13.73361,23.92475 14.97661,27.50375 10.1849,29.32555 -3.50928,1.33423 -9.60338,1.17161 -11.48835,-0.30655 z m 9.48835,-1.69345 c 1.41081,-0.53639 2.5651,-1.45653 2.5651,-2.04477 0,-0.58824 -5.7375,-11.06459 -12.75,-23.28078 -7.0125,-12.21618 -13.425,-23.51735 -14.25,-25.1137 -0.825,-1.59636 -2.74432,-4.23603 -4.26515,-5.86595 -2.33008,-2.49722 -3.2692,-2.86268 -5.96875,-2.32277 -1.76198,0.3524 -3.55936,0.99648 -3.99417,1.43129 -0.43482,0.43482 1.29638,4.58888 3.8471,9.23125 7.18316,13.07355 8.52338,15.9647 8.19005,17.66776 -0.42329,2.16266 -16.31809,5.41201 -24.70007,5.0494 L 608.71802,180.5 603.10901,170 c -3.08496,-5.775 -6.06148,-11.82622 -6.61451,-13.44716 -0.55302,-1.62094 -2.35582,-3.73579 -4.00621,-4.69967 -2.35074,-1.37291 -3.83813,-1.56365 -6.86677,-0.88058 -2.12633,0.47957 -4.26449,1.27038 -4.75147,1.75736 -0.5139,0.5139 1.36891,5.47684 4.48715,11.82774 2.95491,6.01827 5.85812,12.39953 6.45158,14.18059 1.1367,3.41143 6.04865,11.14919 9.59124,15.10904 2.93544,3.28118 8.91048,6.1522 12.81014,6.15529 1.80941,0.001 6.21484,-0.64524 9.78984,-1.43708 15.6179,-3.45924 23.07468,-4.6766 24.967,-4.07601 1.11579,0.35414 3.46812,2.75138 5.2274,5.32719 4.97338,7.28166 6.87713,8.24719 12.2405,6.20804 z m -545.08935,53.43336 c -0.94517,-2.46307 0.6637,-3.68127 18.65445,-14.12478 3.575,-2.07527 7.72188,-4.46174 9.21529,-5.30327 5.68362,-3.20271 26.6957,-15.34894 36.28471,-20.97472 10.98386,-6.44413 29.81068,-17.33689 41.5,-24.01094 4.125,-2.35518 11.55,-6.65262 16.5,-9.54988 13.31506,-7.79335 58.30234,-33.83226 63.5,-36.75418 2.475,-1.39134 13.41288,-7.75211 24.30641,-14.13503 C 342.19993,128.22239 351.30369,123 351.53699,123 c 0.2333,0 2.79541,-1.50442 5.69359,-3.34316 2.89818,-1.83874 8.86942,-5.27497 13.26942,-7.63607 4.4,-2.36109 8.675,-4.83685 9.5,-5.50168 0.825,-0.66483 6.9,-4.23337 13.5,-7.93009 10.37514,-5.811209 20.83171,-11.833627 34.5,-19.870137 1.925,-1.131838 7.325,-4.268944 12,-6.971348 4.675,-2.702403 12.325,-7.136909 17,-9.854457 4.675,-2.717549 10.89568,-6.144478 13.82374,-7.615398 9.13467,-4.588834 8.58457,-7.127048 9.28234,42.829871 0.874,62.574169 0.9956,126.626299 0.25386,133.722839 -0.45869,4.38853 -1.09625,6.25656 -2.25,6.5924 -0.88547,0.25776 -12.63494,1.17326 -26.10994,2.03445 -13.475,0.86119 -36.875,2.45394 -52,3.53944 -15.125,1.0855 -42.125,2.89562 -60,4.02248 -17.875,1.12686 -41.275,2.68305 -52,3.45819 -10.725,0.77514 -24.675,1.68457 -31,2.02095 -6.325,0.33638 -16.45,1.03244 -22.5,1.5468 -6.05,0.51436 -22.025,1.62848 -35.5,2.47584 -13.475,0.84735 -31.25,1.9763 -39.5,2.50877 -38.01781,2.45375 -37.38001,2.44659 -38.15445,0.42842 z M 157.5,257.0023 c 8.25,-0.51845 26.025,-1.63549 39.5,-2.48233 13.475,-0.84683 29.45,-1.96053 35.5,-2.47489 6.05,-0.51436 16.175,-1.21042 22.5,-1.5468 6.325,-0.33638 20.275,-1.24581 31,-2.02095 10.725,-0.77514 34.125,-2.33133 52,-3.45819 17.875,-1.12686 44.875,-2.93698 60,-4.02248 15.125,-1.0855 38.525,-2.67825 52,-3.53944 13.475,-0.86119 25.2486,-1.78435 26.16356,-2.05146 1.30802,-0.38187 1.81748,-2.33345 2.38375,-9.13152 0.96371,-11.56918 -0.49511,-169.531237 -1.57612,-170.663104 -0.9837,-1.029983 -5.85836,1.213416 -17.97119,8.270624 -4.675,2.723762 -12.325,7.163352 -17,9.865755 -4.675,2.702404 -10.075,5.83951 -12,6.971348 -13.66829,8.03651 -24.12486,14.058928 -34.5,19.870137 -6.6,3.69672 -12.675,7.26526 -13.5,7.93009 -0.825,0.66483 -5.1,3.14059 -9.5,5.50168 -4.4,2.3611 -10.37124,5.79733 -13.26942,7.63607 -2.89818,1.83874 -5.46029,3.34316 -5.69359,3.34316 -0.2333,0 -9.33706,5.22239 -20.23058,11.60531 C 322.41288,142.98823 311.475,149.349 309,150.74034 c -5.19766,2.92192 -50.18494,28.96083 -63.5,36.75418 -4.95,2.89726 -12.375,7.1947 -16.5,9.54988 -11.68932,6.67405 -30.51614,17.56681 -41.5,24.01094 -9.58901,5.62578 -30.60109,17.77201 -36.28471,20.97472 -12.108,6.82283 -22.36103,12.99745 -25.34936,15.266 -2.65038,2.012 -5.47454,2.03822 31.63407,-0.29376 z m 139.60476,-40.90292 c -2.38229,-1.53147 -0.5702,-6.35366 6.49149,-17.27464 3.67188,-5.67861 8.24816,-12.79974 10.1695,-15.82474 1.92135,-3.025 4.50648,-7.075 5.74472,-9 1.23824,-1.925 4.40338,-6.85105 7.03364,-10.94679 2.63026,-4.09573 5.17769,-9.27073 5.66097,-11.5 0.48327,-2.22926 2.42277,-6.16806 4.30998,-8.75287 2.56498,-3.5131 4.29516,-4.86171 6.85282,-5.34153 1.99311,-0.37391 4.34989,-0.14504 5.64527,0.54823 1.88204,1.00723 2.14335,1.78952 1.70054,5.09089 -0.29335,2.18712 -2.92934,7.96472 -6.00023,13.15143 -3.01237,5.08785 -11.43511,19.37564 -18.71722,31.75064 -7.28211,12.375 -14.42281,23.6896 -15.86822,25.14355 -1.74027,1.75056 -4.14813,2.8478 -7.12802,3.24816 -2.475,0.33254 -5.12786,0.20098 -5.89524,-0.29233 z M 308.17898,211.25 c 2.20457,-2.37453 10.11135,-15.44297 34.3354,-56.75 6.5197,-11.11743 7.17157,-13.06894 4.78368,-14.32093 -0.99838,-0.52346 -2.75685,-0.58037 -3.95388,-0.12797 -2.90759,1.0989 -8.07675,8.80352 -9.16955,13.66719 -0.48781,2.17107 -3.0368,7.28512 -5.66442,11.36456 -2.62762,4.07943 -6.35066,9.89215 -8.27341,12.91715 -3.72817,5.8654 -4.46445,7.01376 -14.42593,22.5 -3.53786,5.5 -6.72849,10.7875 -7.09029,11.75 -0.55411,1.47412 -0.0617,1.75 3.12371,1.75 2.83969,0 4.41743,-0.68492 6.33469,-2.75 z m 21.23026,0.25182 c -1.24415,-1.89881 -1.46932,-3.63824 -0.93849,-7.25 0.8739,-5.946 10.20548,-24.15223 15.99947,-31.21552 2.38022,-2.90165 4.582,-6.54738 4.89285,-8.10163 0.31084,-1.55424 1.40779,-3.27685 2.43765,-3.82802 1.02986,-0.55116 5.8835,-1.4953 10.78587,-2.09809 11.7478,-1.44449 25.48551,-3.99515 27.62249,-5.12862 1.80928,-0.95965 6.18325,-9.82095 5.28904,-10.71515 -0.28937,-0.28938 -3.33233,-0.003 -6.76213,0.63541 C 378.76617,145.65723 364.13074,148 362.49956,148 361.45955,148 361,146.95344 361,144.58499 c 0,-2.78198 0.8149,-4.13232 4.39612,-7.28464 4.71871,-4.15357 11.04431,-6.56765 21.60388,-8.24481 3.575,-0.56782 8.07203,-1.4876 9.9934,-2.04397 1.92137,-0.55636 6.28335,-1.01157 9.69329,-1.01157 5.27318,0 6.43259,0.3322 7.75661,2.22251 0.85618,1.22237 1.5567,2.95971 1.5567,3.86074 0,3.71605 -7.35547,23.67271 -9.92077,26.91675 -2.16683,2.74014 -2.88412,4.91116 -3.30394,10 -0.336,4.07295 -1.88774,9.90071 -4.15576,15.6076 -1.99074,5.00917 -3.61953,9.66975 -3.61953,10.35684 0,2.24634 -8.08463,11.46885 -12.67079,14.45414 -3.6807,2.39589 -6.03687,3.05475 -13.15644,3.67893 -4.77002,0.41819 -15.2999,0.79233 -23.39972,0.83142 -14.63717,0.0706 -14.73692,0.0558 -16.36381,-2.42711 z m 37.76353,-0.40431 c 7.11957,-0.62418 9.47574,-1.28304 13.15644,-3.67893 C 384.91537,204.43329 393,195.21078 393,192.96444 c 0,-0.68709 1.62879,-5.34767 3.61953,-10.35684 2.26802,-5.70689 3.81976,-11.53465 4.15576,-15.6076 0.42003,-5.09132 1.13652,-7.25852 3.30605,-10 1.5234,-1.925 4.33522,-8.225 6.24849,-14 2.95549,-8.92082 3.28794,-10.8008 2.21046,-12.5 -1.68232,-2.65305 -7.07569,-3.04648 -15.44571,-1.12671 -3.62702,0.8319 -8.39458,1.79065 -10.59458,2.13056 -8.08297,1.24884 -14.76199,3.97462 -19.10388,7.7965 -4.49896,3.96015 -5.9038,7.30103 -2.64612,6.29282 2.67306,-0.82727 21.02332,-3.69548 27.5,-4.29833 5.60553,-0.52177 5.75,-0.47258 5.75,1.95785 0,3.43349 -3.71017,11.5236 -5.79092,12.62725 -2.13698,1.13347 -15.87469,3.68413 -27.62249,5.12862 -4.90237,0.60279 -9.75601,1.54693 -10.78587,2.09809 -1.02986,0.55117 -2.12681,2.27378 -2.43765,3.82802 -0.31085,1.55425 -2.49895,5.1833 -4.86243,8.06455 -4.92424,6.003 -14.37732,23.52026 -15.58716,28.88418 -0.59253,2.627 -0.41236,4.23226 0.65844,5.8666 1.40546,2.1451 2.06753,2.24669 14.20113,2.17893 6.99982,-0.0391 16.6297,-0.41323 21.39972,-0.83142 z M 350.75,191.44541 c -1.61187,-1.67365 -0.61371,-6.33348 2.18395,-10.19553 1.61367,-2.22761 3.3848,-4.32884 3.93584,-4.66941 0.96077,-0.59378 9.15011,-1.82434 21.38021,-3.21266 l 5.75,-0.65272 0,4.19434 c 0,5.57803 -3.5656,11.78086 -7.5,13.04724 -3.97397,1.27913 -24.79267,2.48276 -25.75,1.48874 z m 23.75,-3.51827 c 1.91671,-0.59807 3.81247,-2.36013 5.25,-4.87973 1.2375,-2.16901 2.25,-4.91707 2.25,-6.10682 0,-1.89833 -0.39791,-2.08887 -3.25,-1.55628 -1.7875,0.3338 -6.81293,1.0574 -11.16762,1.608 -4.82993,0.61069 -8.6448,1.65919 -9.78229,2.6886 -2.92566,2.6477 -6.01099,8.16884 -5.25156,9.39761 0.47535,0.76914 3.52145,0.90868 9.82029,0.44985 5.02215,-0.36583 10.48118,-1.08639 12.13118,-1.60123 z"
     id="path3059"
     inkscape:connector-curvature="0" />
  <path
     style="fill:#000000"
     d="M 475.84375 54.78125 C 475.67626 54.769706 475.50909 54.789936 475.3125 54.8125 C 468.27656 57.343088 461.95877 61.642955 455.375 65.15625 C 430.91659 79.428871 406.3002 93.398177 381.875 107.71875 C 304.62199 152.39943 227.31576 197.11868 150.09375 241.875 C 141.46704 247.09012 132.50356 251.78595 124.28125 257.59375 C 123.08531 259.74986 126.22678 259.58117 127.5 259.40625 C 180.21099 256.8732 232.83672 252.62244 285.5 249.28125 C 347.47604 245.05655 409.48871 241.2328 471.4375 236.625 C 473.90534 236.44336 477.76473 236.66644 478.28125 233.4375 C 480.15185 222.1454 479.51059 210.56723 479.6875 199.15625 C 479.4711 152.96379 479.12713 106.77374 478 60.59375 C 477.74338 58.791419 478.35613 54.954416 475.84375 54.78125 z M 409.5 126.96875 C 411.54874 127.01984 413.66573 127.42934 414.3125 129.65625 C 416.17528 133.57499 413.51873 137.84267 412.59375 141.65625 C 410.31475 148.98037 406.83403 155.81961 403.28125 162.59375 C 401.60036 168.86162 401.40493 175.44981 398.90625 181.5 C 396.93331 186.47651 395.5648 191.72026 393.40625 196.59375 C 390.02617 201.41957 386.04035 206.03335 381.03125 209.28125 C 373.93289 212.94433 365.60432 212.24752 357.84375 212.84375 C 349.14833 212.94901 340.3776 213.41045 331.71875 212.625 C 328.32109 210.75252 329.16616 206.22052 329.59375 203.03125 C 332.28324 194.43586 336.79069 186.32993 341.5625 178.65625 C 344.98448 173.56569 348.72875 168.63751 351.15625 162.96875 C 352.43616 160.8028 355.64975 161.27247 357.78125 160.5625 C 368.23641 158.71446 379.03723 158.00821 389.21875 154.8125 C 393.06778 153.46062 394.02437 148.94015 395.78125 145.71875 C 396.60986 144.50501 396.58185 142.17002 394.59375 142.34375 C 383.74893 143.36916 373.10505 146.34249 362.21875 146.9375 C 360.50992 142.86628 363.92185 139.12283 367.09375 137 C 375.08174 131.02225 385.33278 130.53735 394.75 128.3125 C 398.96279 127.44085 403.22239 126.91052 407.53125 127 C 408.14342 126.9932 408.81709 126.95172 409.5 126.96875 z M 345.9375 138.0625 C 348.01368 138.12603 350.51913 139.03338 350.03125 141.53125 C 348.90119 149.50886 343.47799 156.00659 339.84375 163 C 330.51793 178.62772 321.69411 194.54916 311.625 209.6875 C 309.65784 212.96822 306.36343 215.596 302.40625 215.5 C 300.81259 215.3968 298.63242 216.11805 297.3125 215.15625 C 296.1403 213.44543 297.83353 211.20502 298.34375 209.46875 C 305.06043 197.08497 313.20289 185.55182 320.625 173.5625 C 325.35561 165.79522 331.13706 158.42342 333.6875 149.625 C 335.7051 145.31376 338.20327 140.45571 342.78125 138.46875 C 343.52153 138.25427 344.29163 138.11664 345.0625 138.09375 C 345.33163 138.0708 345.6409 138.05342 345.9375 138.0625 z M 380.40625 174.53125 C 380.20963 174.53265 380.01789 174.55719 379.8125 174.59375 C 373.17242 175.40892 366.49776 176.11601 360.03125 177.8125 C 355.94353 179.37441 353.4834 183.63775 351.96875 187.53125 C 351.19473 189.49415 353.31338 190.78262 355.0625 190.375 C 362.08757 190.0601 369.43706 190.34105 376.125 187.9375 C 379.79055 185.50472 381.82071 181.12853 382.625 176.9375 C 382.87882 175.35855 381.78259 174.52145 380.40625 174.53125 z "
     id="path3298" />
  <path
     style="fill:#000000"
     d="m 502.21189,53.46252 c -3.03045,1.299774 -2.11963,5.456439 -2.52751,8.100131 -0.55932,30.565638 0.11764,61.140549 0.29131,91.708319 0.45565,24.56492 0.26496,49.17825 2.13151,73.68925 0.52144,2.85508 0.19005,7.44552 3.83427,8.20508 10.94923,1.93749 22.16508,2.07621 33.23591,3.0864 88.87707,6.41075 177.74395,12.96499 266.62041,19.38294 16.11696,1.20637 32.26097,2.45273 48.34301,3.87332 1.46331,0.39312 3.43109,-1.1255 2.01529,-2.46022 -6.57629,-5.19218 -14.23228,-8.94975 -21.37227,-13.38234 C 730.61371,185.34961 626.75275,124.48618 522.63507,64.074293 516.09639,60.595302 509.98036,56.213762 503.10175,53.46252 c -0.29418,-0.04728 -0.59616,-0.06336 -0.88986,0 z m 131.15054,92.53298 c 3.63214,-0.66466 6.14179,2.40724 7.93758,5.07838 7.23509,11.19571 13.3836,23.06819 19.99309,34.62625 2.98195,5.87483 6.89604,11.48094 8.54075,17.9011 0.58765,1.69457 -0.22947,3.53938 -2.11997,3.72959 -3.21745,0.82688 -6.94911,1.1497 -10.08951,-0.10469 -3.65106,-3.30562 -5.60622,-8.36747 -9.77544,-11.08407 -3.56645,-0.57397 -7.16829,1.08234 -10.72311,1.41438 -8.08079,1.30721 -16.04093,3.75047 -24.2303,4.0426 -9.34088,-0.81766 -15.726,-8.99203 -19.99278,-16.60445 -4.47699,-8.59774 -8.20945,-17.59962 -12.27517,-26.41992 -0.60977,-2.15311 -2.6278,-4.85836 -1.15437,-7.0306 3.16396,-2.15866 7.33695,-2.34287 11.07098,-2.22466 5.26827,0.22291 7.4946,5.69459 9.28949,9.81585 3.20629,6.23735 6.01788,12.78907 10.18287,18.45048 3.49895,3.27789 8.85009,1.5217 13.06831,1.23186 4.7292,-0.96976 9.83132,-1.33643 14.12495,-3.65282 1.21799,-1.81412 -1.13703,-3.79298 -1.6227,-5.56166 -3.13581,-6.55072 -7.23059,-12.72749 -9.61841,-19.59014 -0.55698,-3.02563 3.14489,-3.93527 5.44389,-3.95205 0.64863,-0.0493 1.30009,-0.0416 1.94985,-0.0654 z"
     id="path3306"
     inkscape:connector-curvature="0" />
  <path
     style="fill:#000000"
     d="m 727.20404,677.2455 c -5.6327,3.63429 -9.04636,9.66439 -13.33773,14.65109 -33.21861,43.40167 -65.88559,87.26441 -98.95805,130.79387 -21.23187,27.90107 -42.15516,56.12765 -63.62885,83.78179 -1.18023,1.96497 -3.67724,3.52826 -3.91991,5.86799 1.41233,1.95153 3.73381,-0.63209 5.3392,-1.11233 46.66905,-25.99698 92.93754,-52.74005 139.44509,-79.04786 15.01686,-8.46578 30.07139,-16.9114 44.87913,-25.77551 37.16144,-21.48763 74.55297,-42.7543 111.20289,-64.99709 1.90285,-1.56812 5.03185,-2.50248 5.75796,-5.06438 -0.69889,-2.72193 -4.13019,-3.44123 -6.22906,-4.81575 -30.80772,-14.52234 -61.96426,-28.25988 -92.84448,-42.62051 -8.94545,-3.9523 -17.76339,-8.23569 -26.90793,-11.70057 l -0.41825,0.0206 -0.38001,0.0187 z m 31.9174,68.29721 c 3.10881,0.18432 6.53716,-0.28565 9.48754,0.43185 0.54447,1.63852 0.43759,3.82932 -1.58344,4.30538 -4.27749,2.30912 -9.48327,1.05255 -14.17234,1.50619 -14.55311,-0.0569 -29.13075,0.42653 -43.66895,-0.26299 -1.94527,0.19609 -0.96672,-2.52839 -0.54962,-3.52021 2.45596,-2.07745 6.10983,-1.47374 9.11957,-1.9354 13.77839,-0.56761 27.57976,-0.45372 41.36724,-0.52482 z m -50.36904,12.34035 c 7.54999,0.15175 15.19382,-0.19059 22.6785,0.82444 3.86148,1.83897 -0.2511,6.48343 -1.0469,9.02952 -3.67374,6.83023 -7.0994,13.97126 -12.15714,19.90421 -5.00001,4.41882 -11.64096,6.58406 -18.05905,7.9957 -12.04577,2.026 -24.40081,2.20913 -36.61536,2.23776 -1.16305,0.12396 -2.27745,-0.89667 -1.37406,-2.04146 2.38445,-3.94016 5.78147,-7.33797 9.38285,-10.20729 6.70101,-1.89924 14.03286,-1.01432 20.70247,-3.06218 5.01712,-2.72646 8.22781,-7.81112 11.69912,-12.18332 1.26399,-1.15431 1.32125,-3.63446 -0.70666,-3.84736 -2.62655,-0.81011 -6.27812,0.24181 -8.15274,-2.14615 -0.89858,-2.82366 1.91114,-6.16764 4.86256,-6.13987 2.8999,-0.42234 5.86458,-0.28668 8.78641,-0.364 z m 45.46169,0.40567 c 4.31385,0.32585 9.28939,0.48237 12.62824,3.57256 2.17989,3.24346 0.55796,7.48155 0.39005,11.06229 -0.88107,4.43499 -1.07549,9.26196 -3.19051,13.30433 -3.05251,1.91346 -7.03305,1.11508 -10.48189,1.59673 -3.90068,-0.10304 -8.03951,0.68162 -11.8171,-0.43205 -1.7458,-0.47247 -2.15571,-2.25753 -1.49184,-3.78193 2.45682,-7.54233 4.91633,-15.33654 8.70237,-22.3906 1.08629,-1.94991 3.00219,-3.0478 5.26068,-2.93133 z"
     id="path3308"
     inkscape:connector-curvature="0" />
  <path
     style="fill:#000000"
     d="m 251.63609,677.52031 c -7.50427,2.19861 -14.52961,6.0784 -21.75232,9.14163 -32.0351,14.94816 -64.358,29.38448 -96.18905,44.77958 -2.36007,1.43424 -5.43172,2.23214 -6.95394,4.666 1.63624,2.4573 4.85144,3.67881 7.24061,5.43992 29.26909,17.3405 59.01173,33.91225 88.36131,51.13622 20.54444,11.65857 40.9484,23.6207 61.34395,35.59611 47.63327,27.06866 95.03099,54.76788 142.51915,82.1711 1.75977,0.52851 3.79824,2.93081 5.61507,1.62765 0.48353,-2.23921 -2.09534,-3.8629 -2.99675,-5.7187 -37.60737,-49.73108 -75.55939,-99.20168 -113.10277,-148.98181 -19.30503,-25.26805 -38.2272,-50.8518 -58.20445,-75.57165 -1.61282,-1.77718 -3.14934,-4.36435 -5.88081,-4.28605 z m 16.52796,49.50534 c 1.82775,-0.14322 3.80295,0.0531 4.71093,1.92569 10.02587,11.87055 20.42756,23.42719 29.8368,35.76275 1.28999,2.26007 3.66124,4.71343 3.20614,7.47226 -1.58824,1.54992 -4.27861,1.38156 -6.32067,2.01528 -10.61819,1.59847 -21.48765,3.08663 -32.25764,2.1985 -4.59558,-1.49774 -6.92727,-7.23248 -5.75796,-11.67295 6.4603,-2.35247 13.77191,-2.1346 20.08742,-4.9597 2.05371,-1.72858 -0.79679,-4.10988 -1.70121,-5.66635 -5.6343,-7.67284 -12.21193,-14.75037 -16.84203,-23.04491 -0.80147,-2.00254 0.93638,-4.25664 3.08836,-3.93897 0.64733,-0.0731 1.29924,-0.0803 1.94986,-0.0916 z m -41.03853,14.02847 c 4.57739,-0.47163 6.95067,4.28571 9.36976,7.30214 5.86825,8.52021 11.95921,16.96627 16.5803,26.21179 0.62332,1.10376 1.03781,3.27164 -0.85061,3.21922 -5.52428,0.73048 -10.48355,-2.85706 -13.54428,-7.11893 -5.24587,-6.94543 -10.05307,-14.35113 -13.81909,-22.22048 -0.68704,-2.05495 -1.90299,-5.28706 0.0785,-7.00115 0.67493,-0.3245 1.44858,-0.35537 2.18541,-0.39259 z m 98.61809,51.44211 c 3.1478,3.8162 7.51368,7.08793 9.19964,11.84307 0.52179,1.34702 -0.40441,2.11454 -1.67504,1.96294 -17.63355,0.7701 -35.26462,-0.96744 -52.89468,-0.85061 -4.28139,-0.29852 -7.74327,3.09443 -12.02628,2.48639 -5.91701,-0.2989 -11.76619,-5.45595 -11.10413,-11.69906 0.14567,-1.61897 -0.61934,-4.65797 1.74745,-4.86815 10.64701,-1.15117 21.43253,-0.93241 32.1389,-1.32855 10.60404,-0.20611 21.209,-0.36065 31.81368,-0.5297 0.93349,0.99456 1.86697,1.98911 2.80046,2.98367 z"
     id="path3310"
     inkscape:connector-curvature="0" />
  <path
     style="fill:#000000"
     d="m 99.330506,339.70745 c -1.611626,10.93785 -0.905593,22.34648 -1.270533,33.47647 -0.684031,106.75569 -0.618417,213.51831 0.189989,320.27305 0.323186,8.19359 -0.236403,16.54232 0.768044,24.64891 2.458884,2.89055 6.224574,-0.74137 8.957694,-1.32133 44.4888,-20.2209 89.19339,-40.00315 133.46809,-60.67584 2.08581,-0.91726 5.58414,-2.51141 3.49218,-5.26845 -15.13208,-34.15106 -31.33545,-67.82666 -46.875,-101.79688 -32.45082,-69.63842 -64.56313,-139.43465 -97.24609,-208.96484 -0.41274,-0.62375 -0.859306,-0.5905 -1.484374,-0.37109 z m 55.351564,183.3789 c 5.07519,-0.48701 6.06254,5.80763 8.59972,8.87203 5.27507,9.51965 11.3561,18.65684 15.48231,28.74516 1.27134,3.65083 -4.10792,3.72775 -6.30859,4.60937 -11.29659,2.7198 -23.05672,7.03981 -34.90235,5.15625 -5.63152,-1.03415 -6.98534,-7.55461 -9.74609,-11.66015 -2.1193,-3.26969 -3.33377,-7.8227 -6.58203,-10.03906 -2.93745,-1.02127 -5.60686,2.63621 -3.78907,5.17578 2.16607,7.38682 7.07206,14.18975 7.65625,21.875 -1.53494,2.73724 -5.73372,1.9361 -8.41796,2.38281 -4.32541,-0.13856 -5.07801,-5.90211 -6.71973,-8.90574 -2.8072,-7.13621 -6.92734,-14.17018 -5.81934,-22.14895 0.28449,-4.20308 5.44476,-5.4847 8.4961,-7.28515 5.88654,-2.56859 12.69756,-3.66825 19.0039,-2.57813 3.5415,1.90431 4.24534,6.75878 6.62176,9.77892 2.66342,3.71389 3.90129,9.1375 8.06574,11.47108 2.8858,0.15169 7.18599,-0.28988 8.47657,-3.24219 -2.29083,-9.08886 -8.61734,-16.83974 -10.78125,-25.9375 1.04845,-3.76938 5.80803,-5.48026 9.29687,-6.15234 0.45245,-0.069 0.90939,-0.10874 1.36719,-0.11719 z m 33.80859,54.16016 c 3.43565,2.00024 2.62011,6.2013 2.53906,9.55078 -16.72727,2.79677 -33.5903,5.40112 -50.17318,9.09155 -5.10008,1.58349 -10.6376,5.55119 -16.17447,3.60376 -4.22454,-3.22885 -3.75416,-10.99629 1.67969,-12.73437 10.62108,-3.61685 22.03101,-5.09908 33.0153,-7.583 8.83272,-1.64812 17.59568,-3.76835 26.55501,-4.40919 0.85286,0.82682 1.70573,1.65364 2.55859,2.48047 z"
     id="path3312"
     inkscape:connector-curvature="0" />
  <path
     style="fill:#000000"
     d="m 489.62347,265.27385 c -3.60772,2.04096 -4.49366,6.95488 -6.92037,10.15533 -57.87704,103.0578 -114.94996,206.61533 -172.42395,309.91745 -11.1221,20.30485 -22.77359,40.3615 -33.66349,60.76707 -1.5016,1.90378 -0.0841,4.1372 2.1875,3.82812 17.23823,1.44831 34.59073,0.55008 51.87497,0.90601 114.68024,0.16433 229.36384,0.53096 344.04224,-0.25905 8.9036,-0.33189 18.03679,0.30978 26.79764,-0.62743 -0.6077,-4.53413 -4.03,-8.60284 -5.92899,-12.85211 -32.86098,-60.44136 -66.39045,-120.53699 -99.11008,-181.05414 -4.17209,-6.91216 -6.48031,-14.64541 -10.05266,-21.79088 -11.97019,-20.59592 -25.15772,-40.56509 -36.1507,-61.75288 -18.61144,-33.45851 -36.70817,-67.24114 -55.54207,-100.54242 -1.70401,-1.93606 -2.44985,-6.03313 -5.11004,-6.69507 z M 417.8266,486.79729 c 14.95926,0.27657 30.05981,0.0579 44.92187,1.32812 5.37378,1.77333 10.64659,6.97372 9.73105,13.20267 0.0394,9.44145 0.74634,19.04681 -0.55136,28.3989 -1.97107,4.24097 -5.90498,8.11953 -10.93534,7.63003 -13.10435,1.1824 -26.41071,0.6985 -39.41622,2.56528 -2.92335,3.10889 -2.59105,8.30977 -1.52344,12.16797 1.78482,3.49795 6.70611,1.48082 9.78356,2.23767 14.37862,0.41385 28.76379,0.50993 43.14613,0.73108 0,5.95052 0,11.90104 0,17.85156 -23.89974,0 -47.79948,0 -71.69922,0 -0.98866,-14.38312 -0.98036,-28.98744 0.58594,-43.28125 2.22089,-5.44418 7.43985,-9.82197 13.5927,-9.35257 11.75908,-0.70377 23.63137,-0.2858 35.33308,-1.48727 4.3413,-1.31677 4.27943,-7.49382 2.5,-10.76172 -5.31612,-2.45157 -11.64284,-1.29186 -17.36328,-1.81641 -11.52876,-0.18731 -23.05996,-0.10729 -34.58985,-0.17578 0.18768,-5.967 -1.63715,-12.33857 0.0977,-18.125 3.19198,-2.20042 7.75088,-0.54953 11.40621,-1.12956 1.66015,-0.008 3.32035,0.0134 4.98051,0.0163 z m 119.27734,0.91797 c 10.84636,0 21.69271,0 32.53907,0 5.14288,2.3612 10.03828,6.87419 9.6289,12.96875 0.63765,19.25844 1.36406,38.57675 0.42969,57.83203 -0.11592,6.57256 -5.44214,11.31038 -10.27344,15.01953 -21.5551,-0.39724 -43.18861,0.48618 -64.6875,-1.30859 -4.62494,-0.57772 -8.11069,-4.91846 -10.01953,-8.82813 -1.09002,-13.73946 -0.94321,-27.60818 -0.19531,-41.36719 0.63107,-1.75084 3.85039,-0.56888 5.37109,-1.11328 3.76681,0.1228 8.20218,-0.51754 11.60156,0.70313 1.45985,9.87269 0.0604,20.08304 1.875,29.86328 2.49381,3.85708 8.17377,2.14976 11.99155,2.87207 11.21997,0.11364 22.70061,0.79716 33.75064,-1.09473 2.47436,-1.69302 1.06421,-5.70087 1.72454,-8.2612 0.26724,-11.82867 0.92552,-23.77362 -0.31829,-35.54739 0.15384,-5.10484 -5.35491,-3.03856 -8.57422,-3.41797 -19.23828,0 -38.47656,0 -57.71484,0 -1.72894,-7.23642 2.99329,-15.66004 10.07812,-17.83203 10.89095,-0.87155 21.87268,-0.31665 32.79297,-0.48828 z"
     id="path3314"
     inkscape:connector-curvature="0" />
  <path
     style="fill:#000000"
     d="m 455.75629,259.1801 c -39.91237,1.82042 -79.73035,5.35741 -119.59447,8.01147 -76.03484,5.57386 -152.11387,10.58479 -228.12038,16.51978 -2.23508,-0.055 -6.05495,0.71012 -4.84375,3.82813 7.05385,17.97888 16.06285,35.2322 23.92034,52.9205 40.18899,86.11612 79.6913,172.49633 119.36091,258.87637 4.32857,8.75548 7.84584,18.07127 12.75391,26.50391 2.42606,2.73874 4.29058,-2.03081 5.54304,-3.67643 49.01285,-86.45915 96.79765,-173.68612 145.24247,-260.494 17.7468,-32.32692 36.19908,-64.29752 53.00355,-97.11863 0.90036,-1.74011 2.79918,-6.02125 -0.78125,-5.39063 -2.16145,0.007 -4.32312,-0.0177 -6.48437,0.0195 z m -211.48438,71.13281 c 9.58758,0.23364 17.73083,6.36227 25.83985,10.74219 6.40932,3.47003 10.17546,11.92836 7.98828,18.86719 -5.39112,11.94298 -12.50378,23.28041 -18.05638,35.07745 2.88675,3.19407 7.14389,5.89734 11.49388,6.77802 3.88484,-1.26197 4.8071,-6.31171 7.09814,-9.27253 6.46581,-10.84182 11.51224,-22.64626 18.99561,-32.81732 2.66932,-2.64123 6.52378,0.63943 9.21875,1.60157 2.59217,1.76922 6.76464,3.36393 7.1875,6.75781 -7.12635,15.08421 -15.96052,29.46042 -23.70758,44.28413 -3.08994,5.00763 -5.30921,10.88675 -9.2807,15.14946 -4.132,1.49408 -7.74779,-2.44954 -11.53669,-3.61713 -9.48843,-5.1087 -19.85873,-9.31455 -27.48675,-17.0274 -4.7894,-6.02144 -3.43085,-14.48392 0.17578,-20.72265 4.65474,-9.77735 10.30996,-19.04652 15.39062,-28.41797 -2.72281,-2.61181 -7.24245,-6.78158 -11.21093,-4.41407 -8.72294,13.05455 -15.07197,27.71027 -23.73047,40.80079 -4.87343,2.25417 -10.11761,-1.50014 -14.31641,-3.75 -1.69693,-0.92384 -3.66687,-2.70354 -2.22656,-4.72657 7.12318,-15.34098 15.68292,-30.04085 24.17969,-44.60937 3.08335,-5.14019 7.33823,-10.82016 13.98437,-10.6836 z"
     id="path3316"
     inkscape:connector-curvature="0" />
  <path
     style="fill:#000000"
     d="m 515.15082,258.88713 c 0.60849,4.72742 3.99629,9.02226 5.9375,13.45703 11.34084,21.34567 23.59663,42.0915 34.91914,63.4788 50.4368,91.43792 100.96655,182.82565 151.4334,274.24712 3.26971,5.40137 6.06408,11.3325 9.87793,16.27799 2.61488,0.73991 3.14561,-3.59235 4.46858,-5.06594 17.70333,-35.59007 33.9219,-71.91502 50.99142,-107.81785 33.1879,-71.10323 66.69188,-142.06327 99.88668,-213.15992 1.72989,-4.62804 4.82918,-8.96727 5.68847,-13.81957 -1.83612,-3.06357 -6.45774,-2.2532 -9.48903,-3.01197 -51.49305,-4.19869 -103.06575,-7.40056 -154.58772,-11.24078 -65.02396,-4.51583 -130.01291,-9.62143 -195.06387,-13.69647 -1.33284,0.16449 -2.85951,-0.37594 -4.0625,0.35156 z m 206.91406,64.21875 c 5.06132,0.61245 6.23828,7.07289 6.91406,11.23047 0.87944,6.4025 -2.16658,12.94494 -7.90084,16.01373 -17.05407,10.52204 -35.02519,19.67578 -52.70716,29.19814 -2.96186,0.87766 -6.01228,4.39171 -9.21622,3.16704 -3.8267,-3.54629 -5.97289,-8.75041 -8.16406,-13.39844 -0.98413,-3.59589 4.15616,-4.42123 6.24243,-5.97364 16.01975,-8.75986 32.34225,-17.05793 47.99585,-26.4287 2.90128,-2.54448 2.75823,-7.21028 6.42578,-9.17969 3.08579,-2.11815 6.59326,-4.3811 10.41016,-4.62891 z m 19.60938,35.625 c 3.76115,0.81515 5.07898,5.49671 7.32421,8.16407 2.27799,2.81838 3.59152,8.40985 -0.78125,9.96093 -6.65114,4.26953 -14.61096,6.92405 -20.5664,12.26563 -2.59381,3.5612 1.47554,7.56384 2.55859,10.95703 1.89388,4.54742 5.2601,8.40301 7.14844,12.87109 0.6639,2.42865 2.86277,5.21679 5.23437,5.6836 7.87369,-4.32265 15.90216,-8.59375 23.63282,-13.00782 4.99464,0.45262 7.35575,5.67433 9.10156,9.64844 0.57961,2.84078 2.14072,7.48559 -1.64063,8.78906 -22.85116,12.54315 -45.7808,25.03023 -68.76953,37.32422 -1.42216,1.03563 -2.99062,1.14858 -3.82812,-0.66406 -2.44838,-4.07511 -5.17502,-8.12497 -7.2461,-12.38281 0.29906,-4.32333 5.72447,-5.68606 8.68389,-7.88418 6.22069,-3.95527 13.46645,-6.50215 19.03096,-11.3541 1.47058,-3.12435 -2.0929,-6.07497 -2.97939,-8.94609 -4.31492,-8.45014 -9.07578,-16.78511 -13.52452,-25.07735 -0.73185,-5.98469 -1.52277,-13.39037 3.75,-17.61719 6.81889,-6.34657 15.84133,-9.69259 23.73249,-14.49812 3.03215,-1.35695 5.82754,-3.71764 9.13861,-4.23235 z"
     id="path3320"
     inkscape:connector-curvature="0" />
  <path
     style="fill:#000000"
     d="M 881.40625 337.5 C 881.27709 337.48211 881.13108 337.50482 881 337.53125 C 877.85561 340.59514 876.85867 345.51353 874.53125 349.25 C 835.45902 429.96093 798.5779 511.62916 761.09375 593.09375 C 752.60143 612.24462 743.24605 631.06062 735.9375 650.6875 C 734.28112 653.3242 735.12923 655.9371 738.0625 656.84375 C 783.56247 678.30742 829.65852 698.51478 875.5 719.25 C 877.57565 720.49459 881.79171 721.08387 881.6875 717.5625 C 882.86082 698.57847 882.24476 679.51732 882.59375 660.5 C 883.02511 560.24718 883.58938 459.97206 883.21875 359.71875 C 882.8576 352.55807 883.51929 345.22006 882.3125 338.15625 C 882.1388 337.79549 881.79374 337.55367 881.40625 337.5 z M 824.25 516.59375 C 830.70684 517.79459 835.04976 523.62977 839.78125 527.65625 C 843.51413 531.79952 848.40971 535.21806 850.9375 540.1875 C 849.7664 546.90535 845.78427 552.90042 843.59375 559.34375 C 838.68917 570.21029 835.06863 581.75577 829.125 592.09375 C 826.52137 596.10354 820.80335 596.0619 817.65625 592.6875 C 811.47723 586.94885 805.07513 580.68484 801.9375 572.65625 C 798.85526 562.77362 803.502 553.1352 807.09375 544.15625 C 810.96464 535.84271 813.12605 526.11411 819.03125 519.125 C 820.49676 517.8473 822.24961 516.50916 824.25 516.59375 z M 825 539.21875 C 824.86978 539.22475 824.75267 539.2127 824.625 539.25 C 822.22271 541.19809 822.33542 545.19218 820.71875 547.8125 C 818.87087 553.53449 815.5229 559.063 814.9375 565.0625 C 816.04291 567.87532 818.06206 571.04065 821.0625 571.96875 C 823.87294 570.27948 824.38916 566.14522 826.03125 563.40625 C 828.2838 558.66986 829.45039 553.46657 832.25 549.03125 C 833.12935 544.68883 828.80567 540.53877 825 539.21875 z M 859.875 548.15625 C 864.6044 548.41077 865.6221 553.71099 865.53125 557.53125 C 865.95927 565.70521 865.65522 574.11812 861.84375 581.46875 C 857.7599 590.83217 854.31416 600.64829 849.4375 609.5625 C 845.6666 611.58005 842.25252 607.24423 840.21875 604.5625 C 838.15594 602.13873 836.98771 598.96215 838.78125 596.0625 C 844.82704 580.62202 851.62614 565.28418 857.90625 549.9375 C 858.49309 549.32584 859.02531 548.45425 859.875 548.15625 z M 792.1875 589.03125 C 796.15671 590.95448 799.89769 595.10678 799 599.9375 C 798.68236 603.36571 798.35817 609.54151 793.59375 609.125 C 787.21027 608.77412 785.68931 600.70241 787.625 595.75 C 788.54858 593.39833 789.41996 589.7326 792.1875 589.03125 z "
     id="path3322" />
  <path
     style="fill:#000000"
     d="M 586.4375 673.3125 C 551.54418 673.29489 516.64173 673.33986 481.75 673.34375 C 417.88289 673.56812 354.00969 673.29132 290.15625 674.75 C 287.69046 675.23083 283.52046 674.19462 282.25 676.5625 C 302.31095 703.43394 323.72763 729.659 344.28125 756.28125 C 376.90946 798.27237 409.72522 840.0619 442.375 882.03125 C 458.23241 901.89823 473.61935 922.21538 490.25 941.4375 C 493.7515 943.77606 495.56129 938.3148 497.5625 936.53125 C 536.06672 888.00549 573.30937 838.4329 611.28125 789.46875 C 639.92471 752.1916 668.81273 715.03013 696.40625 677 C 698.05339 673.88449 692.94815 673.80999 691.09375 673.6875 C 656.2033 673.4025 621.33082 673.33011 586.4375 673.3125 z M 504.625 744.90625 C 509.22132 744.89182 513.78351 745.09404 518.25 746.125 C 522.68422 748.53278 526.41048 753.00914 526 758.34375 C 525.86247 767.40992 526.61768 776.67445 525.0625 785.625 C 522.86861 788.11762 524.44507 791.08289 525.625 793.625 C 526.52006 802.78594 525.95233 812.16069 525.53125 821.3125 C 524.48127 825.53907 520.3173 828.37912 516.53125 829.84375 C 499.32876 829.79425 482.08786 830.33306 464.90625 829.5625 C 460.53928 828.15926 456.283 824.45196 455.28125 820.03125 C 455.59817 810.92604 454.63519 801.52147 455.78125 792.5625 C 456.87599 790.87947 459.52324 789.36011 457.125 787.28125 C 455.96722 785.35385 454.02951 781.8507 455.59375 780.40625 C 471.6907 779.81806 487.87814 780.36934 503.90625 778.71875 C 508.63639 778.03914 507.18485 772.05274 507.46875 768.71875 C 509.09722 763.67473 504.58425 763.58593 500.90625 763.84375 C 485.61023 762.95884 470.25185 763.70717 454.96875 762.53125 C 454.37923 756.80385 455.86213 750.81753 460.75 747.3125 C 465.90545 743.92957 472.65235 745.5399 478.5 744.96875 C 482.62103 744.94005 486.72265 744.97325 490.84375 744.96875 C 495.39434 745.16737 500.02868 744.92068 504.625 744.90625 z M 482.15625 798.59375 C 478.6716 798.54605 474.14414 798.85956 473.75 803 C 472.82736 806.61711 474.50028 811.86865 479.0625 811.21875 C 488.0438 811.29045 497.2076 811.97599 506.09375 810.9375 C 508.4895 808.62411 507.22361 804.53926 507.1875 801.53125 C 506.84349 797.67587 501.75877 799.05592 499.15625 798.65625 C 493.96159 798.57965 488.7573 798.5656 483.5625 798.625 C 483.12252 798.61349 482.65406 798.60056 482.15625 798.59375 z "
     id="path3327" />
</svg>
